G04 #@! TF.GenerationSoftware,KiCad,Pcbnew,5.1.10*
G04 #@! TF.CreationDate,2021-11-29T19:36:07+01:00*
G04 #@! TF.ProjectId,RoscoFrontPanel,526f7363-6f46-4726-9f6e-7450616e656c,rev?*
G04 #@! TF.SameCoordinates,Original*
G04 #@! TF.FileFunction,Legend,Top*
G04 #@! TF.FilePolarity,Positive*
%FSLAX46Y46*%
G04 Gerber Fmt 4.6, Leading zero omitted, Abs format (unit mm)*
G04 Created by KiCad (PCBNEW 5.1.10) date 2021-11-29 19:36:07*
%MOMM*%
%LPD*%
G01*
G04 APERTURE LIST*
%ADD10C,0.150000*%
%ADD11C,0.127000*%
%ADD12C,0.400000*%
%ADD13C,0.120000*%
%ADD14O,4.500000X2.250000*%
%ADD15O,5.000000X2.500000*%
%ADD16C,4.000000*%
%ADD17C,1.600000*%
%ADD18R,1.600000X1.600000*%
%ADD19C,1.800000*%
%ADD20R,1.800000X1.800000*%
%ADD21C,2.100000*%
%ADD22C,1.750000*%
%ADD23C,6.400000*%
%ADD24O,1.600000X1.600000*%
%ADD25O,1.700000X1.700000*%
%ADD26R,1.700000X1.700000*%
G04 APERTURE END LIST*
D10*
X188949152Y-90977980D02*
X188472961Y-90977980D01*
X188472961Y-89977980D01*
X189282485Y-90454171D02*
X189615819Y-90454171D01*
X189758676Y-90977980D02*
X189282485Y-90977980D01*
X189282485Y-89977980D01*
X189758676Y-89977980D01*
X190187247Y-90977980D02*
X190187247Y-89977980D01*
X190425342Y-89977980D01*
X190568200Y-90025600D01*
X190663438Y-90120838D01*
X190711057Y-90216076D01*
X190758676Y-90406552D01*
X190758676Y-90549409D01*
X190711057Y-90739885D01*
X190663438Y-90835123D01*
X190568200Y-90930361D01*
X190425342Y-90977980D01*
X190187247Y-90977980D01*
X191139628Y-90073219D02*
X191187247Y-90025600D01*
X191282485Y-89977980D01*
X191520580Y-89977980D01*
X191615819Y-90025600D01*
X191663438Y-90073219D01*
X191711057Y-90168457D01*
X191711057Y-90263695D01*
X191663438Y-90406552D01*
X191092009Y-90977980D01*
X191711057Y-90977980D01*
X179982952Y-90901780D02*
X179506761Y-90901780D01*
X179506761Y-89901780D01*
X180316285Y-90377971D02*
X180649619Y-90377971D01*
X180792476Y-90901780D02*
X180316285Y-90901780D01*
X180316285Y-89901780D01*
X180792476Y-89901780D01*
X181221047Y-90901780D02*
X181221047Y-89901780D01*
X181459142Y-89901780D01*
X181602000Y-89949400D01*
X181697238Y-90044638D01*
X181744857Y-90139876D01*
X181792476Y-90330352D01*
X181792476Y-90473209D01*
X181744857Y-90663685D01*
X181697238Y-90758923D01*
X181602000Y-90854161D01*
X181459142Y-90901780D01*
X181221047Y-90901780D01*
X182744857Y-90901780D02*
X182173428Y-90901780D01*
X182459142Y-90901780D02*
X182459142Y-89901780D01*
X182363904Y-90044638D01*
X182268666Y-90139876D01*
X182173428Y-90187495D01*
X171311961Y-90825580D02*
X170978628Y-90349390D01*
X170740533Y-90825580D02*
X170740533Y-89825580D01*
X171121485Y-89825580D01*
X171216723Y-89873200D01*
X171264342Y-89920819D01*
X171311961Y-90016057D01*
X171311961Y-90158914D01*
X171264342Y-90254152D01*
X171216723Y-90301771D01*
X171121485Y-90349390D01*
X170740533Y-90349390D01*
X172169104Y-90158914D02*
X172169104Y-90825580D01*
X171740533Y-90158914D02*
X171740533Y-90682723D01*
X171788152Y-90777961D01*
X171883390Y-90825580D01*
X172026247Y-90825580D01*
X172121485Y-90777961D01*
X172169104Y-90730342D01*
X172645295Y-90158914D02*
X172645295Y-90825580D01*
X172645295Y-90254152D02*
X172692914Y-90206533D01*
X172788152Y-90158914D01*
X172931009Y-90158914D01*
X173026247Y-90206533D01*
X173073866Y-90301771D01*
X173073866Y-90825580D01*
X161626704Y-90749380D02*
X161293371Y-90273190D01*
X161055276Y-90749380D02*
X161055276Y-89749380D01*
X161436228Y-89749380D01*
X161531466Y-89797000D01*
X161579085Y-89844619D01*
X161626704Y-89939857D01*
X161626704Y-90082714D01*
X161579085Y-90177952D01*
X161531466Y-90225571D01*
X161436228Y-90273190D01*
X161055276Y-90273190D01*
X162436228Y-90701761D02*
X162340990Y-90749380D01*
X162150514Y-90749380D01*
X162055276Y-90701761D01*
X162007657Y-90606523D01*
X162007657Y-90225571D01*
X162055276Y-90130333D01*
X162150514Y-90082714D01*
X162340990Y-90082714D01*
X162436228Y-90130333D01*
X162483847Y-90225571D01*
X162483847Y-90320809D01*
X162007657Y-90416047D01*
X162864800Y-90701761D02*
X162960038Y-90749380D01*
X163150514Y-90749380D01*
X163245752Y-90701761D01*
X163293371Y-90606523D01*
X163293371Y-90558904D01*
X163245752Y-90463666D01*
X163150514Y-90416047D01*
X163007657Y-90416047D01*
X162912419Y-90368428D01*
X162864800Y-90273190D01*
X162864800Y-90225571D01*
X162912419Y-90130333D01*
X163007657Y-90082714D01*
X163150514Y-90082714D01*
X163245752Y-90130333D01*
X164102895Y-90701761D02*
X164007657Y-90749380D01*
X163817180Y-90749380D01*
X163721942Y-90701761D01*
X163674323Y-90606523D01*
X163674323Y-90225571D01*
X163721942Y-90130333D01*
X163817180Y-90082714D01*
X164007657Y-90082714D01*
X164102895Y-90130333D01*
X164150514Y-90225571D01*
X164150514Y-90320809D01*
X163674323Y-90416047D01*
X164436228Y-90082714D02*
X164817180Y-90082714D01*
X164579085Y-89749380D02*
X164579085Y-90606523D01*
X164626704Y-90701761D01*
X164721942Y-90749380D01*
X164817180Y-90749380D01*
X165409619Y-110839380D02*
X165885809Y-110506047D01*
X165409619Y-110267952D02*
X166409619Y-110267952D01*
X166409619Y-110648904D01*
X166362000Y-110744142D01*
X166314380Y-110791761D01*
X166219142Y-110839380D01*
X166076285Y-110839380D01*
X165981047Y-110791761D01*
X165933428Y-110744142D01*
X165885809Y-110648904D01*
X165885809Y-110267952D01*
X165457238Y-111220333D02*
X165409619Y-111363190D01*
X165409619Y-111601285D01*
X165457238Y-111696523D01*
X165504857Y-111744142D01*
X165600095Y-111791761D01*
X165695333Y-111791761D01*
X165790571Y-111744142D01*
X165838190Y-111696523D01*
X165885809Y-111601285D01*
X165933428Y-111410809D01*
X165981047Y-111315571D01*
X166028666Y-111267952D01*
X166123904Y-111220333D01*
X166219142Y-111220333D01*
X166314380Y-111267952D01*
X166362000Y-111315571D01*
X166409619Y-111410809D01*
X166409619Y-111648904D01*
X166362000Y-111791761D01*
X166409619Y-112077476D02*
X166409619Y-112648904D01*
X165409619Y-112363190D02*
X166409619Y-112363190D01*
X165409619Y-112982238D02*
X166409619Y-112982238D01*
X165409619Y-113553666D02*
X165981047Y-113125095D01*
X166409619Y-113553666D02*
X165838190Y-112982238D01*
X167949619Y-110910809D02*
X168425809Y-110577476D01*
X167949619Y-110339380D02*
X168949619Y-110339380D01*
X168949619Y-110720333D01*
X168902000Y-110815571D01*
X168854380Y-110863190D01*
X168759142Y-110910809D01*
X168616285Y-110910809D01*
X168521047Y-110863190D01*
X168473428Y-110815571D01*
X168425809Y-110720333D01*
X168425809Y-110339380D01*
X167997238Y-111291761D02*
X167949619Y-111434619D01*
X167949619Y-111672714D01*
X167997238Y-111767952D01*
X168044857Y-111815571D01*
X168140095Y-111863190D01*
X168235333Y-111863190D01*
X168330571Y-111815571D01*
X168378190Y-111767952D01*
X168425809Y-111672714D01*
X168473428Y-111482238D01*
X168521047Y-111387000D01*
X168568666Y-111339380D01*
X168663904Y-111291761D01*
X168759142Y-111291761D01*
X168854380Y-111339380D01*
X168902000Y-111387000D01*
X168949619Y-111482238D01*
X168949619Y-111720333D01*
X168902000Y-111863190D01*
X168949619Y-112148904D02*
X168949619Y-112720333D01*
X167949619Y-112434619D02*
X168949619Y-112434619D01*
X168235333Y-113006047D02*
X168235333Y-113482238D01*
X167949619Y-112910809D02*
X168949619Y-113244142D01*
X167949619Y-113577476D01*
X173791619Y-110791761D02*
X174267809Y-110458428D01*
X173791619Y-110220333D02*
X174791619Y-110220333D01*
X174791619Y-110601285D01*
X174744000Y-110696523D01*
X174696380Y-110744142D01*
X174601142Y-110791761D01*
X174458285Y-110791761D01*
X174363047Y-110744142D01*
X174315428Y-110696523D01*
X174267809Y-110601285D01*
X174267809Y-110220333D01*
X174458285Y-111648904D02*
X173791619Y-111648904D01*
X174458285Y-111220333D02*
X173934476Y-111220333D01*
X173839238Y-111267952D01*
X173791619Y-111363190D01*
X173791619Y-111506047D01*
X173839238Y-111601285D01*
X173886857Y-111648904D01*
X174458285Y-112125095D02*
X173791619Y-112125095D01*
X174363047Y-112125095D02*
X174410666Y-112172714D01*
X174458285Y-112267952D01*
X174458285Y-112410809D01*
X174410666Y-112506047D01*
X174315428Y-112553666D01*
X173791619Y-112553666D01*
X173791619Y-113029857D02*
X174791619Y-113029857D01*
X173791619Y-113601285D02*
X174363047Y-113172714D01*
X174791619Y-113601285D02*
X174220190Y-113029857D01*
X176331619Y-110863190D02*
X176807809Y-110529857D01*
X176331619Y-110291761D02*
X177331619Y-110291761D01*
X177331619Y-110672714D01*
X177284000Y-110767952D01*
X177236380Y-110815571D01*
X177141142Y-110863190D01*
X176998285Y-110863190D01*
X176903047Y-110815571D01*
X176855428Y-110767952D01*
X176807809Y-110672714D01*
X176807809Y-110291761D01*
X176998285Y-111720333D02*
X176331619Y-111720333D01*
X176998285Y-111291761D02*
X176474476Y-111291761D01*
X176379238Y-111339380D01*
X176331619Y-111434619D01*
X176331619Y-111577476D01*
X176379238Y-111672714D01*
X176426857Y-111720333D01*
X176998285Y-112196523D02*
X176331619Y-112196523D01*
X176903047Y-112196523D02*
X176950666Y-112244142D01*
X176998285Y-112339380D01*
X176998285Y-112482238D01*
X176950666Y-112577476D01*
X176855428Y-112625095D01*
X176331619Y-112625095D01*
X176617333Y-113053666D02*
X176617333Y-113529857D01*
X176331619Y-112958428D02*
X177331619Y-113291761D01*
X176331619Y-113625095D01*
X182935619Y-110775952D02*
X182935619Y-110299761D01*
X183935619Y-110299761D01*
X183459428Y-111109285D02*
X183459428Y-111442619D01*
X182935619Y-111585476D02*
X182935619Y-111109285D01*
X183935619Y-111109285D01*
X183935619Y-111585476D01*
X182935619Y-112014047D02*
X183935619Y-112014047D01*
X183935619Y-112252142D01*
X183888000Y-112395000D01*
X183792761Y-112490238D01*
X183697523Y-112537857D01*
X183507047Y-112585476D01*
X183364190Y-112585476D01*
X183173714Y-112537857D01*
X183078476Y-112490238D01*
X182983238Y-112395000D01*
X182935619Y-112252142D01*
X182935619Y-112014047D01*
X182935619Y-113537857D02*
X182935619Y-112966428D01*
X182935619Y-113252142D02*
X183935619Y-113252142D01*
X183792761Y-113156904D01*
X183697523Y-113061666D01*
X183649904Y-112966428D01*
X182935619Y-113966428D02*
X183935619Y-113966428D01*
X182935619Y-114537857D02*
X183507047Y-114109285D01*
X183935619Y-114537857D02*
X183364190Y-113966428D01*
X185475619Y-110847380D02*
X185475619Y-110371190D01*
X186475619Y-110371190D01*
X185999428Y-111180714D02*
X185999428Y-111514047D01*
X185475619Y-111656904D02*
X185475619Y-111180714D01*
X186475619Y-111180714D01*
X186475619Y-111656904D01*
X185475619Y-112085476D02*
X186475619Y-112085476D01*
X186475619Y-112323571D01*
X186428000Y-112466428D01*
X186332761Y-112561666D01*
X186237523Y-112609285D01*
X186047047Y-112656904D01*
X185904190Y-112656904D01*
X185713714Y-112609285D01*
X185618476Y-112561666D01*
X185523238Y-112466428D01*
X185475619Y-112323571D01*
X185475619Y-112085476D01*
X185475619Y-113609285D02*
X185475619Y-113037857D01*
X185475619Y-113323571D02*
X186475619Y-113323571D01*
X186332761Y-113228333D01*
X186237523Y-113133095D01*
X186189904Y-113037857D01*
X185761333Y-113990238D02*
X185761333Y-114466428D01*
X185475619Y-113895000D02*
X186475619Y-114228333D01*
X185475619Y-114561666D01*
X192079619Y-110775952D02*
X192079619Y-110299761D01*
X193079619Y-110299761D01*
X192603428Y-111109285D02*
X192603428Y-111442619D01*
X192079619Y-111585476D02*
X192079619Y-111109285D01*
X193079619Y-111109285D01*
X193079619Y-111585476D01*
X192079619Y-112014047D02*
X193079619Y-112014047D01*
X193079619Y-112252142D01*
X193032000Y-112395000D01*
X192936761Y-112490238D01*
X192841523Y-112537857D01*
X192651047Y-112585476D01*
X192508190Y-112585476D01*
X192317714Y-112537857D01*
X192222476Y-112490238D01*
X192127238Y-112395000D01*
X192079619Y-112252142D01*
X192079619Y-112014047D01*
X192984380Y-112966428D02*
X193032000Y-113014047D01*
X193079619Y-113109285D01*
X193079619Y-113347380D01*
X193032000Y-113442619D01*
X192984380Y-113490238D01*
X192889142Y-113537857D01*
X192793904Y-113537857D01*
X192651047Y-113490238D01*
X192079619Y-112918809D01*
X192079619Y-113537857D01*
X192079619Y-113966428D02*
X193079619Y-113966428D01*
X192079619Y-114537857D02*
X192651047Y-114109285D01*
X193079619Y-114537857D02*
X192508190Y-113966428D01*
X194619619Y-110847380D02*
X194619619Y-110371190D01*
X195619619Y-110371190D01*
X195143428Y-111180714D02*
X195143428Y-111514047D01*
X194619619Y-111656904D02*
X194619619Y-111180714D01*
X195619619Y-111180714D01*
X195619619Y-111656904D01*
X194619619Y-112085476D02*
X195619619Y-112085476D01*
X195619619Y-112323571D01*
X195572000Y-112466428D01*
X195476761Y-112561666D01*
X195381523Y-112609285D01*
X195191047Y-112656904D01*
X195048190Y-112656904D01*
X194857714Y-112609285D01*
X194762476Y-112561666D01*
X194667238Y-112466428D01*
X194619619Y-112323571D01*
X194619619Y-112085476D01*
X195524380Y-113037857D02*
X195572000Y-113085476D01*
X195619619Y-113180714D01*
X195619619Y-113418809D01*
X195572000Y-113514047D01*
X195524380Y-113561666D01*
X195429142Y-113609285D01*
X195333904Y-113609285D01*
X195191047Y-113561666D01*
X194619619Y-112990238D01*
X194619619Y-113609285D01*
X194905333Y-113990238D02*
X194905333Y-114466428D01*
X194619619Y-113895000D02*
X195619619Y-114228333D01*
X194619619Y-114561666D01*
X215177619Y-111204523D02*
X215177619Y-110728333D01*
X214701428Y-110680714D01*
X214749047Y-110728333D01*
X214796666Y-110823571D01*
X214796666Y-111061666D01*
X214749047Y-111156904D01*
X214701428Y-111204523D01*
X214606190Y-111252142D01*
X214368095Y-111252142D01*
X214272857Y-111204523D01*
X214225238Y-111156904D01*
X214177619Y-111061666D01*
X214177619Y-110823571D01*
X214225238Y-110728333D01*
X214272857Y-110680714D01*
X215177619Y-111537857D02*
X214177619Y-111871190D01*
X215177619Y-112204523D01*
X214177619Y-112537857D02*
X215177619Y-112537857D01*
X215177619Y-112775952D01*
X215130000Y-112918809D01*
X215034761Y-113014047D01*
X214939523Y-113061666D01*
X214749047Y-113109285D01*
X214606190Y-113109285D01*
X214415714Y-113061666D01*
X214320476Y-113014047D01*
X214225238Y-112918809D01*
X214177619Y-112775952D01*
X214177619Y-112537857D01*
X214272857Y-114109285D02*
X214225238Y-114061666D01*
X214177619Y-113918809D01*
X214177619Y-113823571D01*
X214225238Y-113680714D01*
X214320476Y-113585476D01*
X214415714Y-113537857D01*
X214606190Y-113490238D01*
X214749047Y-113490238D01*
X214939523Y-113537857D01*
X215034761Y-113585476D01*
X215130000Y-113680714D01*
X215177619Y-113823571D01*
X215177619Y-113918809D01*
X215130000Y-114061666D01*
X215082380Y-114109285D01*
X212590000Y-111252095D02*
X212637619Y-111156857D01*
X212637619Y-111014000D01*
X212590000Y-110871142D01*
X212494761Y-110775904D01*
X212399523Y-110728285D01*
X212209047Y-110680666D01*
X212066190Y-110680666D01*
X211875714Y-110728285D01*
X211780476Y-110775904D01*
X211685238Y-110871142D01*
X211637619Y-111014000D01*
X211637619Y-111109238D01*
X211685238Y-111252095D01*
X211732857Y-111299714D01*
X212066190Y-111299714D01*
X212066190Y-111109238D01*
X211637619Y-111728285D02*
X212637619Y-111728285D01*
X211637619Y-112299714D01*
X212637619Y-112299714D01*
X211637619Y-112775904D02*
X212637619Y-112775904D01*
X212637619Y-113014000D01*
X212590000Y-113156857D01*
X212494761Y-113252095D01*
X212399523Y-113299714D01*
X212209047Y-113347333D01*
X212066190Y-113347333D01*
X211875714Y-113299714D01*
X211780476Y-113252095D01*
X211685238Y-113156857D01*
X211637619Y-113014000D01*
X211637619Y-112775904D01*
X225099619Y-96838095D02*
X226099619Y-96838095D01*
X226099619Y-97219047D01*
X226052000Y-97314285D01*
X226004380Y-97361904D01*
X225909142Y-97409523D01*
X225766285Y-97409523D01*
X225671047Y-97361904D01*
X225623428Y-97314285D01*
X225575809Y-97219047D01*
X225575809Y-96838095D01*
X225766285Y-97742857D02*
X225099619Y-97933333D01*
X225575809Y-98123809D01*
X225099619Y-98314285D01*
X225766285Y-98504761D01*
X225099619Y-98885714D02*
X225766285Y-98885714D01*
X225575809Y-98885714D02*
X225671047Y-98933333D01*
X225718666Y-98980952D01*
X225766285Y-99076190D01*
X225766285Y-99171428D01*
X225147238Y-99457142D02*
X225099619Y-99600000D01*
X225099619Y-99838095D01*
X225147238Y-99933333D01*
X225194857Y-99980952D01*
X225290095Y-100028571D01*
X225385333Y-100028571D01*
X225480571Y-99980952D01*
X225528190Y-99933333D01*
X225575809Y-99838095D01*
X225623428Y-99647619D01*
X225671047Y-99552380D01*
X225718666Y-99504761D01*
X225813904Y-99457142D01*
X225909142Y-99457142D01*
X226004380Y-99504761D01*
X226052000Y-99552380D01*
X226099619Y-99647619D01*
X226099619Y-99885714D01*
X226052000Y-100028571D01*
X225766285Y-100361904D02*
X225099619Y-100552380D01*
X225575809Y-100742857D01*
X225099619Y-100933333D01*
X225766285Y-101123809D01*
X225099619Y-101504761D02*
X225766285Y-101504761D01*
X226099619Y-101504761D02*
X226052000Y-101457142D01*
X226004380Y-101504761D01*
X226052000Y-101552380D01*
X226099619Y-101504761D01*
X226004380Y-101504761D01*
X225766285Y-101838095D02*
X225766285Y-102219047D01*
X226099619Y-101980952D02*
X225242476Y-101980952D01*
X225147238Y-102028571D01*
X225099619Y-102123809D01*
X225099619Y-102219047D01*
X225147238Y-102980952D02*
X225099619Y-102885714D01*
X225099619Y-102695238D01*
X225147238Y-102600000D01*
X225194857Y-102552380D01*
X225290095Y-102504761D01*
X225575809Y-102504761D01*
X225671047Y-102552380D01*
X225718666Y-102600000D01*
X225766285Y-102695238D01*
X225766285Y-102885714D01*
X225718666Y-102980952D01*
X225099619Y-103409523D02*
X226099619Y-103409523D01*
X225099619Y-103838095D02*
X225623428Y-103838095D01*
X225718666Y-103790476D01*
X225766285Y-103695238D01*
X225766285Y-103552380D01*
X225718666Y-103457142D01*
X225671047Y-103409523D01*
X226099619Y-104504761D02*
X226099619Y-104695238D01*
X226052000Y-104790476D01*
X225956761Y-104885714D01*
X225766285Y-104933333D01*
X225432952Y-104933333D01*
X225242476Y-104885714D01*
X225147238Y-104790476D01*
X225099619Y-104695238D01*
X225099619Y-104504761D01*
X225147238Y-104409523D01*
X225242476Y-104314285D01*
X225432952Y-104266666D01*
X225766285Y-104266666D01*
X225956761Y-104314285D01*
X226052000Y-104409523D01*
X226099619Y-104504761D01*
X225766285Y-105790476D02*
X225099619Y-105790476D01*
X225766285Y-105361904D02*
X225242476Y-105361904D01*
X225147238Y-105409523D01*
X225099619Y-105504761D01*
X225099619Y-105647619D01*
X225147238Y-105742857D01*
X225194857Y-105790476D01*
X225766285Y-106123809D02*
X225766285Y-106504761D01*
X226099619Y-106266666D02*
X225242476Y-106266666D01*
X225147238Y-106314285D01*
X225099619Y-106409523D01*
X225099619Y-106504761D01*
X228147619Y-96901523D02*
X229147619Y-96901523D01*
X229147619Y-97282476D01*
X229100000Y-97377714D01*
X229052380Y-97425333D01*
X228957142Y-97472952D01*
X228814285Y-97472952D01*
X228719047Y-97425333D01*
X228671428Y-97377714D01*
X228623809Y-97282476D01*
X228623809Y-96901523D01*
X228814285Y-97806285D02*
X228147619Y-97996761D01*
X228623809Y-98187238D01*
X228147619Y-98377714D01*
X228814285Y-98568190D01*
X228147619Y-98949142D02*
X228814285Y-98949142D01*
X228623809Y-98949142D02*
X228719047Y-98996761D01*
X228766666Y-99044380D01*
X228814285Y-99139619D01*
X228814285Y-99234857D01*
X228195238Y-99520571D02*
X228147619Y-99663428D01*
X228147619Y-99901523D01*
X228195238Y-99996761D01*
X228242857Y-100044380D01*
X228338095Y-100092000D01*
X228433333Y-100092000D01*
X228528571Y-100044380D01*
X228576190Y-99996761D01*
X228623809Y-99901523D01*
X228671428Y-99711047D01*
X228719047Y-99615809D01*
X228766666Y-99568190D01*
X228861904Y-99520571D01*
X228957142Y-99520571D01*
X229052380Y-99568190D01*
X229100000Y-99615809D01*
X229147619Y-99711047D01*
X229147619Y-99949142D01*
X229100000Y-100092000D01*
X228814285Y-100425333D02*
X228147619Y-100615809D01*
X228623809Y-100806285D01*
X228147619Y-100996761D01*
X228814285Y-101187238D01*
X228147619Y-101568190D02*
X228814285Y-101568190D01*
X229147619Y-101568190D02*
X229100000Y-101520571D01*
X229052380Y-101568190D01*
X229100000Y-101615809D01*
X229147619Y-101568190D01*
X229052380Y-101568190D01*
X228814285Y-101901523D02*
X228814285Y-102282476D01*
X229147619Y-102044380D02*
X228290476Y-102044380D01*
X228195238Y-102092000D01*
X228147619Y-102187238D01*
X228147619Y-102282476D01*
X228195238Y-103044380D02*
X228147619Y-102949142D01*
X228147619Y-102758666D01*
X228195238Y-102663428D01*
X228242857Y-102615809D01*
X228338095Y-102568190D01*
X228623809Y-102568190D01*
X228719047Y-102615809D01*
X228766666Y-102663428D01*
X228814285Y-102758666D01*
X228814285Y-102949142D01*
X228766666Y-103044380D01*
X228147619Y-103472952D02*
X229147619Y-103472952D01*
X228147619Y-103901523D02*
X228671428Y-103901523D01*
X228766666Y-103853904D01*
X228814285Y-103758666D01*
X228814285Y-103615809D01*
X228766666Y-103520571D01*
X228719047Y-103472952D01*
X228147619Y-104377714D02*
X229147619Y-104377714D01*
X228814285Y-104853904D02*
X228147619Y-104853904D01*
X228719047Y-104853904D02*
X228766666Y-104901523D01*
X228814285Y-104996761D01*
X228814285Y-105139619D01*
X228766666Y-105234857D01*
X228671428Y-105282476D01*
X228147619Y-105282476D01*
X201477619Y-111093428D02*
X201953809Y-110760095D01*
X201477619Y-110522000D02*
X202477619Y-110522000D01*
X202477619Y-110902952D01*
X202430000Y-110998190D01*
X202382380Y-111045809D01*
X202287142Y-111093428D01*
X202144285Y-111093428D01*
X202049047Y-111045809D01*
X202001428Y-110998190D01*
X201953809Y-110902952D01*
X201953809Y-110522000D01*
X201525238Y-111474380D02*
X201477619Y-111617238D01*
X201477619Y-111855333D01*
X201525238Y-111950571D01*
X201572857Y-111998190D01*
X201668095Y-112045809D01*
X201763333Y-112045809D01*
X201858571Y-111998190D01*
X201906190Y-111950571D01*
X201953809Y-111855333D01*
X202001428Y-111664857D01*
X202049047Y-111569619D01*
X202096666Y-111522000D01*
X202191904Y-111474380D01*
X202287142Y-111474380D01*
X202382380Y-111522000D01*
X202430000Y-111569619D01*
X202477619Y-111664857D01*
X202477619Y-111902952D01*
X202430000Y-112045809D01*
X202477619Y-112331523D02*
X202477619Y-112902952D01*
X201477619Y-112617238D02*
X202477619Y-112617238D01*
X201477619Y-113712476D02*
X201477619Y-113236285D01*
X202477619Y-113236285D01*
X202477619Y-113950571D02*
X202477619Y-114569619D01*
X202096666Y-114236285D01*
X202096666Y-114379142D01*
X202049047Y-114474380D01*
X202001428Y-114522000D01*
X201906190Y-114569619D01*
X201668095Y-114569619D01*
X201572857Y-114522000D01*
X201525238Y-114474380D01*
X201477619Y-114379142D01*
X201477619Y-114093428D01*
X201525238Y-113998190D01*
X201572857Y-113950571D01*
X204017619Y-111093428D02*
X204493809Y-110760095D01*
X204017619Y-110522000D02*
X205017619Y-110522000D01*
X205017619Y-110902952D01*
X204970000Y-110998190D01*
X204922380Y-111045809D01*
X204827142Y-111093428D01*
X204684285Y-111093428D01*
X204589047Y-111045809D01*
X204541428Y-110998190D01*
X204493809Y-110902952D01*
X204493809Y-110522000D01*
X204065238Y-111474380D02*
X204017619Y-111617238D01*
X204017619Y-111855333D01*
X204065238Y-111950571D01*
X204112857Y-111998190D01*
X204208095Y-112045809D01*
X204303333Y-112045809D01*
X204398571Y-111998190D01*
X204446190Y-111950571D01*
X204493809Y-111855333D01*
X204541428Y-111664857D01*
X204589047Y-111569619D01*
X204636666Y-111522000D01*
X204731904Y-111474380D01*
X204827142Y-111474380D01*
X204922380Y-111522000D01*
X204970000Y-111569619D01*
X205017619Y-111664857D01*
X205017619Y-111902952D01*
X204970000Y-112045809D01*
X205017619Y-112331523D02*
X205017619Y-112902952D01*
X204017619Y-112617238D02*
X205017619Y-112617238D01*
X204017619Y-113712476D02*
X204017619Y-113236285D01*
X205017619Y-113236285D01*
X204017619Y-114569619D02*
X204017619Y-113998190D01*
X204017619Y-114283904D02*
X205017619Y-114283904D01*
X204874761Y-114188666D01*
X204779523Y-114093428D01*
X204731904Y-113998190D01*
X129127380Y-110847142D02*
X129079761Y-110894761D01*
X128936904Y-110942380D01*
X128841666Y-110942380D01*
X128698809Y-110894761D01*
X128603571Y-110799523D01*
X128555952Y-110704285D01*
X128508333Y-110513809D01*
X128508333Y-110370952D01*
X128555952Y-110180476D01*
X128603571Y-110085238D01*
X128698809Y-109990000D01*
X128841666Y-109942380D01*
X128936904Y-109942380D01*
X129079761Y-109990000D01*
X129127380Y-110037619D01*
X129413095Y-109942380D02*
X129984523Y-109942380D01*
X129698809Y-110942380D02*
X129698809Y-109942380D01*
X130270238Y-110894761D02*
X130413095Y-110942380D01*
X130651190Y-110942380D01*
X130746428Y-110894761D01*
X130794047Y-110847142D01*
X130841666Y-110751904D01*
X130841666Y-110656666D01*
X130794047Y-110561428D01*
X130746428Y-110513809D01*
X130651190Y-110466190D01*
X130460714Y-110418571D01*
X130365476Y-110370952D01*
X130317857Y-110323333D01*
X130270238Y-110228095D01*
X130270238Y-110132857D01*
X130317857Y-110037619D01*
X130365476Y-109990000D01*
X130460714Y-109942380D01*
X130698809Y-109942380D01*
X130841666Y-109990000D01*
X131603571Y-110418571D02*
X131746428Y-110466190D01*
X131794047Y-110513809D01*
X131841666Y-110609047D01*
X131841666Y-110751904D01*
X131794047Y-110847142D01*
X131746428Y-110894761D01*
X131651190Y-110942380D01*
X131270238Y-110942380D01*
X131270238Y-109942380D01*
X131603571Y-109942380D01*
X131698809Y-109990000D01*
X131746428Y-110037619D01*
X131794047Y-110132857D01*
X131794047Y-110228095D01*
X131746428Y-110323333D01*
X131698809Y-110370952D01*
X131603571Y-110418571D01*
X131270238Y-110418571D01*
X129254380Y-108402380D02*
X128921047Y-107926190D01*
X128682952Y-108402380D02*
X128682952Y-107402380D01*
X129063904Y-107402380D01*
X129159142Y-107450000D01*
X129206761Y-107497619D01*
X129254380Y-107592857D01*
X129254380Y-107735714D01*
X129206761Y-107830952D01*
X129159142Y-107878571D01*
X129063904Y-107926190D01*
X128682952Y-107926190D01*
X129540095Y-107402380D02*
X130111523Y-107402380D01*
X129825809Y-108402380D02*
X129825809Y-107402380D01*
X130397238Y-108354761D02*
X130540095Y-108402380D01*
X130778190Y-108402380D01*
X130873428Y-108354761D01*
X130921047Y-108307142D01*
X130968666Y-108211904D01*
X130968666Y-108116666D01*
X130921047Y-108021428D01*
X130873428Y-107973809D01*
X130778190Y-107926190D01*
X130587714Y-107878571D01*
X130492476Y-107830952D01*
X130444857Y-107783333D01*
X130397238Y-107688095D01*
X130397238Y-107592857D01*
X130444857Y-107497619D01*
X130492476Y-107450000D01*
X130587714Y-107402380D01*
X130825809Y-107402380D01*
X130968666Y-107450000D01*
X131730571Y-107878571D02*
X131873428Y-107926190D01*
X131921047Y-107973809D01*
X131968666Y-108069047D01*
X131968666Y-108211904D01*
X131921047Y-108307142D01*
X131873428Y-108354761D01*
X131778190Y-108402380D01*
X131397238Y-108402380D01*
X131397238Y-107402380D01*
X131730571Y-107402380D01*
X131825809Y-107450000D01*
X131873428Y-107497619D01*
X131921047Y-107592857D01*
X131921047Y-107688095D01*
X131873428Y-107783333D01*
X131825809Y-107830952D01*
X131730571Y-107878571D01*
X131397238Y-107878571D01*
X129262333Y-105862380D02*
X128929000Y-105386190D01*
X128690904Y-105862380D02*
X128690904Y-104862380D01*
X129071857Y-104862380D01*
X129167095Y-104910000D01*
X129214714Y-104957619D01*
X129262333Y-105052857D01*
X129262333Y-105195714D01*
X129214714Y-105290952D01*
X129167095Y-105338571D01*
X129071857Y-105386190D01*
X128690904Y-105386190D01*
X129595666Y-104862380D02*
X130262333Y-105862380D01*
X130262333Y-104862380D02*
X129595666Y-105862380D01*
X130643285Y-105862380D02*
X130643285Y-104862380D01*
X130881380Y-104862380D01*
X131024238Y-104910000D01*
X131119476Y-105005238D01*
X131167095Y-105100476D01*
X131214714Y-105290952D01*
X131214714Y-105433809D01*
X131167095Y-105624285D01*
X131119476Y-105719523D01*
X131024238Y-105814761D01*
X130881380Y-105862380D01*
X130643285Y-105862380D01*
X131976619Y-105338571D02*
X132119476Y-105386190D01*
X132167095Y-105433809D01*
X132214714Y-105529047D01*
X132214714Y-105671904D01*
X132167095Y-105767142D01*
X132119476Y-105814761D01*
X132024238Y-105862380D01*
X131643285Y-105862380D01*
X131643285Y-104862380D01*
X131976619Y-104862380D01*
X132071857Y-104910000D01*
X132119476Y-104957619D01*
X132167095Y-105052857D01*
X132167095Y-105148095D01*
X132119476Y-105243333D01*
X132071857Y-105290952D01*
X131976619Y-105338571D01*
X131643285Y-105338571D01*
X128667095Y-102195380D02*
X129238523Y-102195380D01*
X128952809Y-103195380D02*
X128952809Y-102195380D01*
X129476619Y-102195380D02*
X130143285Y-103195380D01*
X130143285Y-102195380D02*
X129476619Y-103195380D01*
X130524238Y-103195380D02*
X130524238Y-102195380D01*
X130762333Y-102195380D01*
X130905190Y-102243000D01*
X131000428Y-102338238D01*
X131048047Y-102433476D01*
X131095666Y-102623952D01*
X131095666Y-102766809D01*
X131048047Y-102957285D01*
X131000428Y-103052523D01*
X130905190Y-103147761D01*
X130762333Y-103195380D01*
X130524238Y-103195380D01*
X131857571Y-102671571D02*
X132000428Y-102719190D01*
X132048047Y-102766809D01*
X132095666Y-102862047D01*
X132095666Y-103004904D01*
X132048047Y-103100142D01*
X132000428Y-103147761D01*
X131905190Y-103195380D01*
X131524238Y-103195380D01*
X131524238Y-102195380D01*
X131857571Y-102195380D01*
X131952809Y-102243000D01*
X132000428Y-102290619D01*
X132048047Y-102385857D01*
X132048047Y-102481095D01*
X132000428Y-102576333D01*
X131952809Y-102623952D01*
X131857571Y-102671571D01*
X131524238Y-102671571D01*
X85129809Y-110847142D02*
X85082190Y-110894761D01*
X84939333Y-110942380D01*
X84844095Y-110942380D01*
X84701238Y-110894761D01*
X84606000Y-110799523D01*
X84558380Y-110704285D01*
X84510761Y-110513809D01*
X84510761Y-110370952D01*
X84558380Y-110180476D01*
X84606000Y-110085238D01*
X84701238Y-109990000D01*
X84844095Y-109942380D01*
X84939333Y-109942380D01*
X85082190Y-109990000D01*
X85129809Y-110037619D01*
X85415523Y-109942380D02*
X85986952Y-109942380D01*
X85701238Y-110942380D02*
X85701238Y-109942380D01*
X86272666Y-110894761D02*
X86415523Y-110942380D01*
X86653619Y-110942380D01*
X86748857Y-110894761D01*
X86796476Y-110847142D01*
X86844095Y-110751904D01*
X86844095Y-110656666D01*
X86796476Y-110561428D01*
X86748857Y-110513809D01*
X86653619Y-110466190D01*
X86463142Y-110418571D01*
X86367904Y-110370952D01*
X86320285Y-110323333D01*
X86272666Y-110228095D01*
X86272666Y-110132857D01*
X86320285Y-110037619D01*
X86367904Y-109990000D01*
X86463142Y-109942380D01*
X86701238Y-109942380D01*
X86844095Y-109990000D01*
X87225047Y-110656666D02*
X87701238Y-110656666D01*
X87129809Y-110942380D02*
X87463142Y-109942380D01*
X87796476Y-110942380D01*
X85129809Y-108529380D02*
X84796476Y-108053190D01*
X84558380Y-108529380D02*
X84558380Y-107529380D01*
X84939333Y-107529380D01*
X85034571Y-107577000D01*
X85082190Y-107624619D01*
X85129809Y-107719857D01*
X85129809Y-107862714D01*
X85082190Y-107957952D01*
X85034571Y-108005571D01*
X84939333Y-108053190D01*
X84558380Y-108053190D01*
X85415523Y-107529380D02*
X85986952Y-107529380D01*
X85701238Y-108529380D02*
X85701238Y-107529380D01*
X86272666Y-108481761D02*
X86415523Y-108529380D01*
X86653619Y-108529380D01*
X86748857Y-108481761D01*
X86796476Y-108434142D01*
X86844095Y-108338904D01*
X86844095Y-108243666D01*
X86796476Y-108148428D01*
X86748857Y-108100809D01*
X86653619Y-108053190D01*
X86463142Y-108005571D01*
X86367904Y-107957952D01*
X86320285Y-107910333D01*
X86272666Y-107815095D01*
X86272666Y-107719857D01*
X86320285Y-107624619D01*
X86367904Y-107577000D01*
X86463142Y-107529380D01*
X86701238Y-107529380D01*
X86844095Y-107577000D01*
X87225047Y-108243666D02*
X87701238Y-108243666D01*
X87129809Y-108529380D02*
X87463142Y-107529380D01*
X87796476Y-108529380D01*
X85010761Y-105862380D02*
X84677428Y-105386190D01*
X84439333Y-105862380D02*
X84439333Y-104862380D01*
X84820285Y-104862380D01*
X84915523Y-104910000D01*
X84963142Y-104957619D01*
X85010761Y-105052857D01*
X85010761Y-105195714D01*
X84963142Y-105290952D01*
X84915523Y-105338571D01*
X84820285Y-105386190D01*
X84439333Y-105386190D01*
X85344095Y-104862380D02*
X86010761Y-105862380D01*
X86010761Y-104862380D02*
X85344095Y-105862380D01*
X86391714Y-105862380D02*
X86391714Y-104862380D01*
X86629809Y-104862380D01*
X86772666Y-104910000D01*
X86867904Y-105005238D01*
X86915523Y-105100476D01*
X86963142Y-105290952D01*
X86963142Y-105433809D01*
X86915523Y-105624285D01*
X86867904Y-105719523D01*
X86772666Y-105814761D01*
X86629809Y-105862380D01*
X86391714Y-105862380D01*
X87344095Y-105576666D02*
X87820285Y-105576666D01*
X87248857Y-105862380D02*
X87582190Y-104862380D01*
X87915523Y-105862380D01*
X84415523Y-102195380D02*
X84986952Y-102195380D01*
X84701238Y-103195380D02*
X84701238Y-102195380D01*
X85225047Y-102195380D02*
X85891714Y-103195380D01*
X85891714Y-102195380D02*
X85225047Y-103195380D01*
X86272666Y-103195380D02*
X86272666Y-102195380D01*
X86510761Y-102195380D01*
X86653619Y-102243000D01*
X86748857Y-102338238D01*
X86796476Y-102433476D01*
X86844095Y-102623952D01*
X86844095Y-102766809D01*
X86796476Y-102957285D01*
X86748857Y-103052523D01*
X86653619Y-103147761D01*
X86510761Y-103195380D01*
X86272666Y-103195380D01*
X87225047Y-102909666D02*
X87701238Y-102909666D01*
X87129809Y-103195380D02*
X87463142Y-102195380D01*
X87796476Y-103195380D01*
D11*
X212720800Y-76368400D02*
X221720800Y-76368400D01*
X221720800Y-76368400D02*
X221720800Y-90868400D01*
X221720800Y-90868400D02*
X219870800Y-90868400D01*
X212720800Y-90868400D02*
X212720800Y-76368400D01*
X214670800Y-90868400D02*
X212720800Y-90868400D01*
D12*
X217420800Y-92068400D02*
G75*
G03*
X217420800Y-92068400I-200000J0D01*
G01*
D13*
X154825000Y-80560000D02*
X154825000Y-92900000D01*
X154825000Y-92900000D02*
X123855000Y-92900000D01*
X123855000Y-92900000D02*
X123855000Y-80560000D01*
X145130000Y-93794338D02*
X144630000Y-93794338D01*
X144630000Y-93794338D02*
X144880000Y-93361325D01*
X144880000Y-93361325D02*
X145130000Y-93794338D01*
X119905000Y-80550000D02*
X119905000Y-92890000D01*
X119905000Y-92890000D02*
X88935000Y-92890000D01*
X88935000Y-92890000D02*
X88935000Y-80550000D01*
X110210000Y-93784338D02*
X109710000Y-93784338D01*
X109710000Y-93784338D02*
X109960000Y-93351325D01*
X109960000Y-93351325D02*
X110210000Y-93784338D01*
X190282000Y-81550000D02*
X190282000Y-77690000D01*
X187162000Y-81550000D02*
X187162000Y-77690000D01*
X190282000Y-81550000D02*
X187162000Y-81550000D01*
X186762000Y-81550000D02*
X186762000Y-80430000D01*
X186762000Y-80430000D02*
X187162000Y-80430000D01*
X187162000Y-80430000D02*
X187162000Y-81550000D01*
X187162000Y-81550000D02*
X186762000Y-81550000D01*
X189992000Y-84220000D02*
X189992000Y-81550000D01*
X189992000Y-81550000D02*
X189992000Y-81550000D01*
X189992000Y-81550000D02*
X189992000Y-84220000D01*
X189992000Y-84220000D02*
X189992000Y-84220000D01*
X187452000Y-84220000D02*
X187452000Y-81550000D01*
X187452000Y-81550000D02*
X187452000Y-81550000D01*
X187452000Y-81550000D02*
X187452000Y-84220000D01*
X187452000Y-84220000D02*
X187452000Y-84220000D01*
X187162000Y-77690000D02*
G75*
G02*
X190282000Y-77690000I1560000J0D01*
G01*
X181265000Y-81550000D02*
X181265000Y-77690000D01*
X178145000Y-81550000D02*
X178145000Y-77690000D01*
X181265000Y-81550000D02*
X178145000Y-81550000D01*
X177745000Y-81550000D02*
X177745000Y-80430000D01*
X177745000Y-80430000D02*
X178145000Y-80430000D01*
X178145000Y-80430000D02*
X178145000Y-81550000D01*
X178145000Y-81550000D02*
X177745000Y-81550000D01*
X180975000Y-84220000D02*
X180975000Y-81550000D01*
X180975000Y-81550000D02*
X180975000Y-81550000D01*
X180975000Y-81550000D02*
X180975000Y-84220000D01*
X180975000Y-84220000D02*
X180975000Y-84220000D01*
X178435000Y-84220000D02*
X178435000Y-81550000D01*
X178435000Y-81550000D02*
X178435000Y-81550000D01*
X178435000Y-81550000D02*
X178435000Y-84220000D01*
X178435000Y-84220000D02*
X178435000Y-84220000D01*
X178145000Y-77690000D02*
G75*
G02*
X181265000Y-77690000I1560000J0D01*
G01*
X160460000Y-84220000D02*
X160460000Y-84220000D01*
X160460000Y-81550000D02*
X160460000Y-84220000D01*
X160460000Y-81550000D02*
X160460000Y-81550000D01*
X160460000Y-84220000D02*
X160460000Y-81550000D01*
X163000000Y-84220000D02*
X163000000Y-84220000D01*
X163000000Y-81550000D02*
X163000000Y-84220000D01*
X163000000Y-81550000D02*
X163000000Y-81550000D01*
X163000000Y-84220000D02*
X163000000Y-81550000D01*
X160170000Y-81550000D02*
X159770000Y-81550000D01*
X160170000Y-80430000D02*
X160170000Y-81550000D01*
X159770000Y-80430000D02*
X160170000Y-80430000D01*
X159770000Y-81550000D02*
X159770000Y-80430000D01*
X163290000Y-81550000D02*
X160170000Y-81550000D01*
X160170000Y-81550000D02*
X160170000Y-77690000D01*
X163290000Y-81550000D02*
X163290000Y-77690000D01*
X160170000Y-77690000D02*
G75*
G02*
X163290000Y-77690000I1560000J0D01*
G01*
X169460000Y-84220000D02*
X169460000Y-84220000D01*
X169460000Y-81550000D02*
X169460000Y-84220000D01*
X169460000Y-81550000D02*
X169460000Y-81550000D01*
X169460000Y-84220000D02*
X169460000Y-81550000D01*
X172000000Y-84220000D02*
X172000000Y-84220000D01*
X172000000Y-81550000D02*
X172000000Y-84220000D01*
X172000000Y-81550000D02*
X172000000Y-81550000D01*
X172000000Y-84220000D02*
X172000000Y-81550000D01*
X169170000Y-81550000D02*
X168770000Y-81550000D01*
X169170000Y-80430000D02*
X169170000Y-81550000D01*
X168770000Y-80430000D02*
X169170000Y-80430000D01*
X168770000Y-81550000D02*
X168770000Y-80430000D01*
X172290000Y-81550000D02*
X169170000Y-81550000D01*
X169170000Y-81550000D02*
X169170000Y-77690000D01*
X172290000Y-81550000D02*
X172290000Y-77690000D01*
X169170000Y-77690000D02*
G75*
G02*
X172290000Y-77690000I1560000J0D01*
G01*
X201550000Y-84060000D02*
X204950000Y-84060000D01*
X199910000Y-84060000D02*
X200450000Y-84060000D01*
X207110000Y-86890000D02*
X207110000Y-87400000D01*
X206590000Y-87400000D02*
X207110000Y-87400000D01*
X206590000Y-86890000D02*
X206590000Y-87400000D01*
X206050000Y-84060000D02*
X206590000Y-84060000D01*
X199390000Y-86890000D02*
X199390000Y-87400000D01*
X199910000Y-86890000D02*
X199910000Y-87400000D01*
X206590000Y-84060000D02*
X206590000Y-84290000D01*
X199390000Y-80390000D02*
X199390000Y-84290000D01*
X199390000Y-87400000D02*
X199910000Y-87400000D01*
X207110000Y-80390000D02*
X207110000Y-84290000D01*
X199390000Y-80390000D02*
X207110000Y-80390000D01*
X199910000Y-84060000D02*
X199910000Y-84290000D01*
X155699000Y-111691000D02*
X155699000Y-101411000D01*
X135139000Y-111691000D02*
X155699000Y-111691000D01*
X135139000Y-101411000D02*
X135139000Y-111691000D01*
X155699000Y-101411000D02*
X135139000Y-101411000D01*
X155639000Y-109201000D02*
X155639000Y-107551000D01*
X135199000Y-109201000D02*
X155639000Y-109201000D01*
X135199000Y-103901000D02*
X135199000Y-109201000D01*
X155639000Y-103901000D02*
X135199000Y-103901000D01*
X155639000Y-105551000D02*
X155639000Y-103901000D01*
X155639000Y-107551000D02*
G75*
G02*
X155639000Y-105551000I0J1000000D01*
G01*
X115029600Y-111515200D02*
X115029600Y-101235200D01*
X94469600Y-111515200D02*
X115029600Y-111515200D01*
X94469600Y-101235200D02*
X94469600Y-111515200D01*
X115029600Y-101235200D02*
X94469600Y-101235200D01*
X114969600Y-109025200D02*
X114969600Y-107375200D01*
X94529600Y-109025200D02*
X114969600Y-109025200D01*
X94529600Y-103725200D02*
X94529600Y-109025200D01*
X114969600Y-103725200D02*
X94529600Y-103725200D01*
X114969600Y-105375200D02*
X114969600Y-103725200D01*
X114969600Y-107375200D02*
G75*
G02*
X114969600Y-105375200I0J1000000D01*
G01*
X124908000Y-101540000D02*
X126238000Y-101540000D01*
X124908000Y-102870000D02*
X124908000Y-101540000D01*
X124908000Y-104140000D02*
X127568000Y-104140000D01*
X127568000Y-104140000D02*
X127568000Y-111820000D01*
X124908000Y-104140000D02*
X124908000Y-111820000D01*
X124908000Y-111820000D02*
X127568000Y-111820000D01*
X88967000Y-101540000D02*
X90297000Y-101540000D01*
X88967000Y-102870000D02*
X88967000Y-101540000D01*
X88967000Y-104140000D02*
X91627000Y-104140000D01*
X91627000Y-104140000D02*
X91627000Y-111820000D01*
X88967000Y-104140000D02*
X88967000Y-111820000D01*
X88967000Y-111820000D02*
X91627000Y-111820000D01*
X229676000Y-93412000D02*
X229676000Y-94742000D01*
X228346000Y-93412000D02*
X229676000Y-93412000D01*
X227076000Y-93412000D02*
X227076000Y-96072000D01*
X227076000Y-96072000D02*
X224476000Y-96072000D01*
X227076000Y-93412000D02*
X224476000Y-93412000D01*
X224476000Y-93412000D02*
X224476000Y-96072000D01*
X196402000Y-107001000D02*
X196402000Y-108331000D01*
X195072000Y-107001000D02*
X196402000Y-107001000D01*
X193802000Y-107001000D02*
X193802000Y-109661000D01*
X193802000Y-109661000D02*
X191202000Y-109661000D01*
X193802000Y-107001000D02*
X191202000Y-107001000D01*
X191202000Y-107001000D02*
X191202000Y-109661000D01*
X187258000Y-107001000D02*
X187258000Y-108331000D01*
X185928000Y-107001000D02*
X187258000Y-107001000D01*
X184658000Y-107001000D02*
X184658000Y-109661000D01*
X184658000Y-109661000D02*
X182058000Y-109661000D01*
X184658000Y-107001000D02*
X182058000Y-107001000D01*
X182058000Y-107001000D02*
X182058000Y-109661000D01*
X169732000Y-107001000D02*
X169732000Y-108331000D01*
X168402000Y-107001000D02*
X169732000Y-107001000D01*
X167132000Y-107001000D02*
X167132000Y-109661000D01*
X167132000Y-109661000D02*
X164532000Y-109661000D01*
X167132000Y-107001000D02*
X164532000Y-107001000D01*
X164532000Y-107001000D02*
X164532000Y-109661000D01*
X178114000Y-107001000D02*
X178114000Y-108331000D01*
X176784000Y-107001000D02*
X178114000Y-107001000D01*
X175514000Y-107001000D02*
X175514000Y-109661000D01*
X175514000Y-109661000D02*
X172914000Y-109661000D01*
X175514000Y-107001000D02*
X172914000Y-107001000D01*
X172914000Y-107001000D02*
X172914000Y-109661000D01*
X215960000Y-107001000D02*
X215960000Y-108331000D01*
X214630000Y-107001000D02*
X215960000Y-107001000D01*
X213360000Y-107001000D02*
X213360000Y-109661000D01*
X213360000Y-109661000D02*
X210760000Y-109661000D01*
X213360000Y-107001000D02*
X210760000Y-107001000D01*
X210760000Y-107001000D02*
X210760000Y-109661000D01*
X205927000Y-107001000D02*
X205927000Y-108331000D01*
X204597000Y-107001000D02*
X205927000Y-107001000D01*
X203327000Y-107001000D02*
X203327000Y-109661000D01*
X203327000Y-109661000D02*
X200727000Y-109661000D01*
X203327000Y-107001000D02*
X200727000Y-107001000D01*
X200727000Y-107001000D02*
X200727000Y-109661000D01*
X141050000Y-98028000D02*
G75*
G03*
X141050000Y-98028000I-2620000J0D01*
G01*
X155020000Y-98060000D02*
G75*
G03*
X155020000Y-98060000I-2620000J0D01*
G01*
X100537000Y-98028000D02*
G75*
G03*
X100537000Y-98028000I-2620000J0D01*
G01*
X114761000Y-97933000D02*
G75*
G03*
X114761000Y-97933000I-2620000J0D01*
G01*
X148051000Y-98044000D02*
G75*
G03*
X148051000Y-98044000I-2620000J0D01*
G01*
X107411000Y-98044000D02*
G75*
G03*
X107411000Y-98044000I-2620000J0D01*
G01*
X162370000Y-109728000D02*
G75*
G03*
X162370000Y-109728000I-2620000J0D01*
G01*
X121222000Y-109347000D02*
G75*
G03*
X121222000Y-109347000I-2620000J0D01*
G01*
X162148000Y-103632000D02*
G75*
G03*
X162148000Y-103632000I-2620000J0D01*
G01*
X121381000Y-103378000D02*
G75*
G03*
X121381000Y-103378000I-2620000J0D01*
G01*
D10*
X209905888Y-87916054D02*
X210620399Y-87916054D01*
X210763301Y-87963688D01*
X210858569Y-88058956D01*
X210906203Y-88201858D01*
X210906203Y-88297126D01*
X209905888Y-87534981D02*
X209905888Y-86868105D01*
X210906203Y-87296811D01*
X151055476Y-93413380D02*
X151055476Y-94127666D01*
X151007857Y-94270523D01*
X150912619Y-94365761D01*
X150769761Y-94413380D01*
X150674523Y-94413380D01*
X152055476Y-94413380D02*
X151484047Y-94413380D01*
X151769761Y-94413380D02*
X151769761Y-93413380D01*
X151674523Y-93556238D01*
X151579285Y-93651476D01*
X151484047Y-93699095D01*
X152436428Y-93508619D02*
X152484047Y-93461000D01*
X152579285Y-93413380D01*
X152817380Y-93413380D01*
X152912619Y-93461000D01*
X152960238Y-93508619D01*
X153007857Y-93603857D01*
X153007857Y-93699095D01*
X152960238Y-93841952D01*
X152388809Y-94413380D01*
X153007857Y-94413380D01*
X116211676Y-94190780D02*
X116211676Y-94905066D01*
X116164057Y-95047923D01*
X116068819Y-95143161D01*
X115925961Y-95190780D01*
X115830723Y-95190780D01*
X117211676Y-95190780D02*
X116640247Y-95190780D01*
X116925961Y-95190780D02*
X116925961Y-94190780D01*
X116830723Y-94333638D01*
X116735485Y-94428876D01*
X116640247Y-94476495D01*
X118164057Y-95190780D02*
X117592628Y-95190780D01*
X117878342Y-95190780D02*
X117878342Y-94190780D01*
X117783104Y-94333638D01*
X117687866Y-94428876D01*
X117592628Y-94476495D01*
X187983904Y-87712380D02*
X187983904Y-86712380D01*
X188222000Y-86712380D01*
X188364857Y-86760000D01*
X188460095Y-86855238D01*
X188507714Y-86950476D01*
X188555333Y-87140952D01*
X188555333Y-87283809D01*
X188507714Y-87474285D01*
X188460095Y-87569523D01*
X188364857Y-87664761D01*
X188222000Y-87712380D01*
X187983904Y-87712380D01*
X189412476Y-87045714D02*
X189412476Y-87712380D01*
X189174380Y-86664761D02*
X188936285Y-87379047D01*
X189555333Y-87379047D01*
X178966904Y-87712380D02*
X178966904Y-86712380D01*
X179205000Y-86712380D01*
X179347857Y-86760000D01*
X179443095Y-86855238D01*
X179490714Y-86950476D01*
X179538333Y-87140952D01*
X179538333Y-87283809D01*
X179490714Y-87474285D01*
X179443095Y-87569523D01*
X179347857Y-87664761D01*
X179205000Y-87712380D01*
X178966904Y-87712380D01*
X179871666Y-86712380D02*
X180490714Y-86712380D01*
X180157380Y-87093333D01*
X180300238Y-87093333D01*
X180395476Y-87140952D01*
X180443095Y-87188571D01*
X180490714Y-87283809D01*
X180490714Y-87521904D01*
X180443095Y-87617142D01*
X180395476Y-87664761D01*
X180300238Y-87712380D01*
X180014523Y-87712380D01*
X179919285Y-87664761D01*
X179871666Y-87617142D01*
X160991904Y-87712380D02*
X160991904Y-86712380D01*
X161230000Y-86712380D01*
X161372857Y-86760000D01*
X161468095Y-86855238D01*
X161515714Y-86950476D01*
X161563333Y-87140952D01*
X161563333Y-87283809D01*
X161515714Y-87474285D01*
X161468095Y-87569523D01*
X161372857Y-87664761D01*
X161230000Y-87712380D01*
X160991904Y-87712380D01*
X161944285Y-86807619D02*
X161991904Y-86760000D01*
X162087142Y-86712380D01*
X162325238Y-86712380D01*
X162420476Y-86760000D01*
X162468095Y-86807619D01*
X162515714Y-86902857D01*
X162515714Y-86998095D01*
X162468095Y-87140952D01*
X161896666Y-87712380D01*
X162515714Y-87712380D01*
X169991904Y-87712380D02*
X169991904Y-86712380D01*
X170230000Y-86712380D01*
X170372857Y-86760000D01*
X170468095Y-86855238D01*
X170515714Y-86950476D01*
X170563333Y-87140952D01*
X170563333Y-87283809D01*
X170515714Y-87474285D01*
X170468095Y-87569523D01*
X170372857Y-87664761D01*
X170230000Y-87712380D01*
X169991904Y-87712380D01*
X171515714Y-87712380D02*
X170944285Y-87712380D01*
X171230000Y-87712380D02*
X171230000Y-86712380D01*
X171134761Y-86855238D01*
X171039523Y-86950476D01*
X170944285Y-86998095D01*
X201916666Y-85174761D02*
X202059523Y-85222380D01*
X202297619Y-85222380D01*
X202392857Y-85174761D01*
X202440476Y-85127142D01*
X202488095Y-85031904D01*
X202488095Y-84936666D01*
X202440476Y-84841428D01*
X202392857Y-84793809D01*
X202297619Y-84746190D01*
X202107142Y-84698571D01*
X202011904Y-84650952D01*
X201964285Y-84603333D01*
X201916666Y-84508095D01*
X201916666Y-84412857D01*
X201964285Y-84317619D01*
X202011904Y-84270000D01*
X202107142Y-84222380D01*
X202345238Y-84222380D01*
X202488095Y-84270000D01*
X202821428Y-84222380D02*
X203059523Y-85222380D01*
X203250000Y-84508095D01*
X203440476Y-85222380D01*
X203678571Y-84222380D01*
X204583333Y-85222380D02*
X204011904Y-85222380D01*
X204297619Y-85222380D02*
X204297619Y-84222380D01*
X204202380Y-84365238D01*
X204107142Y-84460476D01*
X204011904Y-84508095D01*
X226238095Y-109252380D02*
X226238095Y-108252380D01*
X226238095Y-108728571D02*
X226809523Y-108728571D01*
X226809523Y-109252380D02*
X226809523Y-108252380D01*
X227714285Y-108585714D02*
X227714285Y-109252380D01*
X227476190Y-108204761D02*
X227238095Y-108919047D01*
X227857142Y-108919047D01*
X226238095Y-82252380D02*
X226238095Y-81252380D01*
X226238095Y-81728571D02*
X226809523Y-81728571D01*
X226809523Y-82252380D02*
X226809523Y-81252380D01*
X227190476Y-81252380D02*
X227809523Y-81252380D01*
X227476190Y-81633333D01*
X227619047Y-81633333D01*
X227714285Y-81680952D01*
X227761904Y-81728571D01*
X227809523Y-81823809D01*
X227809523Y-82061904D01*
X227761904Y-82157142D01*
X227714285Y-82204761D01*
X227619047Y-82252380D01*
X227333333Y-82252380D01*
X227238095Y-82204761D01*
X227190476Y-82157142D01*
X78238095Y-109252380D02*
X78238095Y-108252380D01*
X78238095Y-108728571D02*
X78809523Y-108728571D01*
X78809523Y-109252380D02*
X78809523Y-108252380D01*
X79238095Y-108347619D02*
X79285714Y-108300000D01*
X79380952Y-108252380D01*
X79619047Y-108252380D01*
X79714285Y-108300000D01*
X79761904Y-108347619D01*
X79809523Y-108442857D01*
X79809523Y-108538095D01*
X79761904Y-108680952D01*
X79190476Y-109252380D01*
X79809523Y-109252380D01*
X78238095Y-82252380D02*
X78238095Y-81252380D01*
X78238095Y-81728571D02*
X78809523Y-81728571D01*
X78809523Y-82252380D02*
X78809523Y-81252380D01*
X79809523Y-82252380D02*
X79238095Y-82252380D01*
X79523809Y-82252380D02*
X79523809Y-81252380D01*
X79428571Y-81395238D01*
X79333333Y-81490476D01*
X79238095Y-81538095D01*
X156091380Y-107312904D02*
X156900904Y-107312904D01*
X156996142Y-107265285D01*
X157043761Y-107217666D01*
X157091380Y-107122428D01*
X157091380Y-106931952D01*
X157043761Y-106836714D01*
X156996142Y-106789095D01*
X156900904Y-106741476D01*
X156091380Y-106741476D01*
X156186619Y-106312904D02*
X156139000Y-106265285D01*
X156091380Y-106170047D01*
X156091380Y-105931952D01*
X156139000Y-105836714D01*
X156186619Y-105789095D01*
X156281857Y-105741476D01*
X156377095Y-105741476D01*
X156519952Y-105789095D01*
X157091380Y-106360523D01*
X157091380Y-105741476D01*
X115421980Y-107137104D02*
X116231504Y-107137104D01*
X116326742Y-107089485D01*
X116374361Y-107041866D01*
X116421980Y-106946628D01*
X116421980Y-106756152D01*
X116374361Y-106660914D01*
X116326742Y-106613295D01*
X116231504Y-106565676D01*
X115421980Y-106565676D01*
X116421980Y-105565676D02*
X116421980Y-106137104D01*
X116421980Y-105851390D02*
X115421980Y-105851390D01*
X115564838Y-105946628D01*
X115660076Y-106041866D01*
X115707695Y-106137104D01*
X125428476Y-99992380D02*
X125428476Y-100706666D01*
X125380857Y-100849523D01*
X125285619Y-100944761D01*
X125142761Y-100992380D01*
X125047523Y-100992380D01*
X126428476Y-100992380D02*
X125857047Y-100992380D01*
X126142761Y-100992380D02*
X126142761Y-99992380D01*
X126047523Y-100135238D01*
X125952285Y-100230476D01*
X125857047Y-100278095D01*
X127047523Y-99992380D02*
X127142761Y-99992380D01*
X127238000Y-100040000D01*
X127285619Y-100087619D01*
X127333238Y-100182857D01*
X127380857Y-100373333D01*
X127380857Y-100611428D01*
X127333238Y-100801904D01*
X127285619Y-100897142D01*
X127238000Y-100944761D01*
X127142761Y-100992380D01*
X127047523Y-100992380D01*
X126952285Y-100944761D01*
X126904666Y-100897142D01*
X126857047Y-100801904D01*
X126809428Y-100611428D01*
X126809428Y-100373333D01*
X126857047Y-100182857D01*
X126904666Y-100087619D01*
X126952285Y-100040000D01*
X127047523Y-99992380D01*
X89963666Y-99992380D02*
X89963666Y-100706666D01*
X89916047Y-100849523D01*
X89820809Y-100944761D01*
X89677952Y-100992380D01*
X89582714Y-100992380D01*
X90487476Y-100992380D02*
X90677952Y-100992380D01*
X90773190Y-100944761D01*
X90820809Y-100897142D01*
X90916047Y-100754285D01*
X90963666Y-100563809D01*
X90963666Y-100182857D01*
X90916047Y-100087619D01*
X90868428Y-100040000D01*
X90773190Y-99992380D01*
X90582714Y-99992380D01*
X90487476Y-100040000D01*
X90439857Y-100087619D01*
X90392238Y-100182857D01*
X90392238Y-100420952D01*
X90439857Y-100516190D01*
X90487476Y-100563809D01*
X90582714Y-100611428D01*
X90773190Y-100611428D01*
X90868428Y-100563809D01*
X90916047Y-100516190D01*
X90963666Y-100420952D01*
X230128380Y-95075333D02*
X230842666Y-95075333D01*
X230985523Y-95122952D01*
X231080761Y-95218190D01*
X231128380Y-95361047D01*
X231128380Y-95456285D01*
X230556952Y-94456285D02*
X230509333Y-94551523D01*
X230461714Y-94599142D01*
X230366476Y-94646761D01*
X230318857Y-94646761D01*
X230223619Y-94599142D01*
X230176000Y-94551523D01*
X230128380Y-94456285D01*
X230128380Y-94265809D01*
X230176000Y-94170571D01*
X230223619Y-94122952D01*
X230318857Y-94075333D01*
X230366476Y-94075333D01*
X230461714Y-94122952D01*
X230509333Y-94170571D01*
X230556952Y-94265809D01*
X230556952Y-94456285D01*
X230604571Y-94551523D01*
X230652190Y-94599142D01*
X230747428Y-94646761D01*
X230937904Y-94646761D01*
X231033142Y-94599142D01*
X231080761Y-94551523D01*
X231128380Y-94456285D01*
X231128380Y-94265809D01*
X231080761Y-94170571D01*
X231033142Y-94122952D01*
X230937904Y-94075333D01*
X230747428Y-94075333D01*
X230652190Y-94122952D01*
X230604571Y-94170571D01*
X230556952Y-94265809D01*
X196854380Y-108664333D02*
X197568666Y-108664333D01*
X197711523Y-108711952D01*
X197806761Y-108807190D01*
X197854380Y-108950047D01*
X197854380Y-109045285D01*
X196854380Y-107759571D02*
X196854380Y-107950047D01*
X196902000Y-108045285D01*
X196949619Y-108092904D01*
X197092476Y-108188142D01*
X197282952Y-108235761D01*
X197663904Y-108235761D01*
X197759142Y-108188142D01*
X197806761Y-108140523D01*
X197854380Y-108045285D01*
X197854380Y-107854809D01*
X197806761Y-107759571D01*
X197759142Y-107711952D01*
X197663904Y-107664333D01*
X197425809Y-107664333D01*
X197330571Y-107711952D01*
X197282952Y-107759571D01*
X197235333Y-107854809D01*
X197235333Y-108045285D01*
X197282952Y-108140523D01*
X197330571Y-108188142D01*
X197425809Y-108235761D01*
X187710380Y-108664333D02*
X188424666Y-108664333D01*
X188567523Y-108711952D01*
X188662761Y-108807190D01*
X188710380Y-108950047D01*
X188710380Y-109045285D01*
X187710380Y-107711952D02*
X187710380Y-108188142D01*
X188186571Y-108235761D01*
X188138952Y-108188142D01*
X188091333Y-108092904D01*
X188091333Y-107854809D01*
X188138952Y-107759571D01*
X188186571Y-107711952D01*
X188281809Y-107664333D01*
X188519904Y-107664333D01*
X188615142Y-107711952D01*
X188662761Y-107759571D01*
X188710380Y-107854809D01*
X188710380Y-108092904D01*
X188662761Y-108188142D01*
X188615142Y-108235761D01*
X170184380Y-108664333D02*
X170898666Y-108664333D01*
X171041523Y-108711952D01*
X171136761Y-108807190D01*
X171184380Y-108950047D01*
X171184380Y-109045285D01*
X170517714Y-107759571D02*
X171184380Y-107759571D01*
X170136761Y-107997666D02*
X170851047Y-108235761D01*
X170851047Y-107616714D01*
X178566380Y-108664333D02*
X179280666Y-108664333D01*
X179423523Y-108711952D01*
X179518761Y-108807190D01*
X179566380Y-108950047D01*
X179566380Y-109045285D01*
X178566380Y-108283380D02*
X178566380Y-107664333D01*
X178947333Y-107997666D01*
X178947333Y-107854809D01*
X178994952Y-107759571D01*
X179042571Y-107711952D01*
X179137809Y-107664333D01*
X179375904Y-107664333D01*
X179471142Y-107711952D01*
X179518761Y-107759571D01*
X179566380Y-107854809D01*
X179566380Y-108140523D01*
X179518761Y-108235761D01*
X179471142Y-108283380D01*
X216412380Y-108664333D02*
X217126666Y-108664333D01*
X217269523Y-108711952D01*
X217364761Y-108807190D01*
X217412380Y-108950047D01*
X217412380Y-109045285D01*
X216507619Y-108235761D02*
X216460000Y-108188142D01*
X216412380Y-108092904D01*
X216412380Y-107854809D01*
X216460000Y-107759571D01*
X216507619Y-107711952D01*
X216602857Y-107664333D01*
X216698095Y-107664333D01*
X216840952Y-107711952D01*
X217412380Y-108283380D01*
X217412380Y-107664333D01*
X206970380Y-108664333D02*
X207684666Y-108664333D01*
X207827523Y-108711952D01*
X207922761Y-108807190D01*
X207970380Y-108950047D01*
X207970380Y-109045285D01*
X207970380Y-107664333D02*
X207970380Y-108235761D01*
X207970380Y-107950047D02*
X206970380Y-107950047D01*
X207113238Y-108045285D01*
X207208476Y-108140523D01*
X207256095Y-108235761D01*
X142216142Y-98686857D02*
X142263761Y-98734476D01*
X142311380Y-98877333D01*
X142311380Y-98972571D01*
X142263761Y-99115428D01*
X142168523Y-99210666D01*
X142073285Y-99258285D01*
X141882809Y-99305904D01*
X141739952Y-99305904D01*
X141549476Y-99258285D01*
X141454238Y-99210666D01*
X141359000Y-99115428D01*
X141311380Y-98972571D01*
X141311380Y-98877333D01*
X141359000Y-98734476D01*
X141406619Y-98686857D01*
X142311380Y-97734476D02*
X142311380Y-98305904D01*
X142311380Y-98020190D02*
X141311380Y-98020190D01*
X141454238Y-98115428D01*
X141549476Y-98210666D01*
X141597095Y-98305904D01*
X141311380Y-97115428D02*
X141311380Y-97020190D01*
X141359000Y-96924952D01*
X141406619Y-96877333D01*
X141501857Y-96829714D01*
X141692333Y-96782095D01*
X141930428Y-96782095D01*
X142120904Y-96829714D01*
X142216142Y-96877333D01*
X142263761Y-96924952D01*
X142311380Y-97020190D01*
X142311380Y-97115428D01*
X142263761Y-97210666D01*
X142216142Y-97258285D01*
X142120904Y-97305904D01*
X141930428Y-97353523D01*
X141692333Y-97353523D01*
X141501857Y-97305904D01*
X141406619Y-97258285D01*
X141359000Y-97210666D01*
X141311380Y-97115428D01*
X156567142Y-98226666D02*
X156614761Y-98274285D01*
X156662380Y-98417142D01*
X156662380Y-98512380D01*
X156614761Y-98655238D01*
X156519523Y-98750476D01*
X156424285Y-98798095D01*
X156233809Y-98845714D01*
X156090952Y-98845714D01*
X155900476Y-98798095D01*
X155805238Y-98750476D01*
X155710000Y-98655238D01*
X155662380Y-98512380D01*
X155662380Y-98417142D01*
X155710000Y-98274285D01*
X155757619Y-98226666D01*
X156662380Y-97750476D02*
X156662380Y-97560000D01*
X156614761Y-97464761D01*
X156567142Y-97417142D01*
X156424285Y-97321904D01*
X156233809Y-97274285D01*
X155852857Y-97274285D01*
X155757619Y-97321904D01*
X155710000Y-97369523D01*
X155662380Y-97464761D01*
X155662380Y-97655238D01*
X155710000Y-97750476D01*
X155757619Y-97798095D01*
X155852857Y-97845714D01*
X156090952Y-97845714D01*
X156186190Y-97798095D01*
X156233809Y-97750476D01*
X156281428Y-97655238D01*
X156281428Y-97464761D01*
X156233809Y-97369523D01*
X156186190Y-97321904D01*
X156090952Y-97274285D01*
X101576142Y-98210666D02*
X101623761Y-98258285D01*
X101671380Y-98401142D01*
X101671380Y-98496380D01*
X101623761Y-98639238D01*
X101528523Y-98734476D01*
X101433285Y-98782095D01*
X101242809Y-98829714D01*
X101099952Y-98829714D01*
X100909476Y-98782095D01*
X100814238Y-98734476D01*
X100719000Y-98639238D01*
X100671380Y-98496380D01*
X100671380Y-98401142D01*
X100719000Y-98258285D01*
X100766619Y-98210666D01*
X101099952Y-97639238D02*
X101052333Y-97734476D01*
X101004714Y-97782095D01*
X100909476Y-97829714D01*
X100861857Y-97829714D01*
X100766619Y-97782095D01*
X100719000Y-97734476D01*
X100671380Y-97639238D01*
X100671380Y-97448761D01*
X100719000Y-97353523D01*
X100766619Y-97305904D01*
X100861857Y-97258285D01*
X100909476Y-97258285D01*
X101004714Y-97305904D01*
X101052333Y-97353523D01*
X101099952Y-97448761D01*
X101099952Y-97639238D01*
X101147571Y-97734476D01*
X101195190Y-97782095D01*
X101290428Y-97829714D01*
X101480904Y-97829714D01*
X101576142Y-97782095D01*
X101623761Y-97734476D01*
X101671380Y-97639238D01*
X101671380Y-97448761D01*
X101623761Y-97353523D01*
X101576142Y-97305904D01*
X101480904Y-97258285D01*
X101290428Y-97258285D01*
X101195190Y-97305904D01*
X101147571Y-97353523D01*
X101099952Y-97448761D01*
X116155742Y-98134466D02*
X116203361Y-98182085D01*
X116250980Y-98324942D01*
X116250980Y-98420180D01*
X116203361Y-98563038D01*
X116108123Y-98658276D01*
X116012885Y-98705895D01*
X115822409Y-98753514D01*
X115679552Y-98753514D01*
X115489076Y-98705895D01*
X115393838Y-98658276D01*
X115298600Y-98563038D01*
X115250980Y-98420180D01*
X115250980Y-98324942D01*
X115298600Y-98182085D01*
X115346219Y-98134466D01*
X115250980Y-97801133D02*
X115250980Y-97134466D01*
X116250980Y-97563038D01*
X149328142Y-98210666D02*
X149375761Y-98258285D01*
X149423380Y-98401142D01*
X149423380Y-98496380D01*
X149375761Y-98639238D01*
X149280523Y-98734476D01*
X149185285Y-98782095D01*
X148994809Y-98829714D01*
X148851952Y-98829714D01*
X148661476Y-98782095D01*
X148566238Y-98734476D01*
X148471000Y-98639238D01*
X148423380Y-98496380D01*
X148423380Y-98401142D01*
X148471000Y-98258285D01*
X148518619Y-98210666D01*
X148423380Y-97353523D02*
X148423380Y-97544000D01*
X148471000Y-97639238D01*
X148518619Y-97686857D01*
X148661476Y-97782095D01*
X148851952Y-97829714D01*
X149232904Y-97829714D01*
X149328142Y-97782095D01*
X149375761Y-97734476D01*
X149423380Y-97639238D01*
X149423380Y-97448761D01*
X149375761Y-97353523D01*
X149328142Y-97305904D01*
X149232904Y-97258285D01*
X148994809Y-97258285D01*
X148899571Y-97305904D01*
X148851952Y-97353523D01*
X148804333Y-97448761D01*
X148804333Y-97639238D01*
X148851952Y-97734476D01*
X148899571Y-97782095D01*
X148994809Y-97829714D01*
X108942142Y-98083666D02*
X108989761Y-98131285D01*
X109037380Y-98274142D01*
X109037380Y-98369380D01*
X108989761Y-98512238D01*
X108894523Y-98607476D01*
X108799285Y-98655095D01*
X108608809Y-98702714D01*
X108465952Y-98702714D01*
X108275476Y-98655095D01*
X108180238Y-98607476D01*
X108085000Y-98512238D01*
X108037380Y-98369380D01*
X108037380Y-98274142D01*
X108085000Y-98131285D01*
X108132619Y-98083666D01*
X108037380Y-97178904D02*
X108037380Y-97655095D01*
X108513571Y-97702714D01*
X108465952Y-97655095D01*
X108418333Y-97559857D01*
X108418333Y-97321761D01*
X108465952Y-97226523D01*
X108513571Y-97178904D01*
X108608809Y-97131285D01*
X108846904Y-97131285D01*
X108942142Y-97178904D01*
X108989761Y-97226523D01*
X109037380Y-97321761D01*
X109037380Y-97559857D01*
X108989761Y-97655095D01*
X108942142Y-97702714D01*
X159599333Y-113895142D02*
X159551714Y-113942761D01*
X159408857Y-113990380D01*
X159313619Y-113990380D01*
X159170761Y-113942761D01*
X159075523Y-113847523D01*
X159027904Y-113752285D01*
X158980285Y-113561809D01*
X158980285Y-113418952D01*
X159027904Y-113228476D01*
X159075523Y-113133238D01*
X159170761Y-113038000D01*
X159313619Y-112990380D01*
X159408857Y-112990380D01*
X159551714Y-113038000D01*
X159599333Y-113085619D01*
X160456476Y-113323714D02*
X160456476Y-113990380D01*
X160218380Y-112942761D02*
X159980285Y-113657047D01*
X160599333Y-113657047D01*
X122388333Y-109704142D02*
X122340714Y-109751761D01*
X122197857Y-109799380D01*
X122102619Y-109799380D01*
X121959761Y-109751761D01*
X121864523Y-109656523D01*
X121816904Y-109561285D01*
X121769285Y-109370809D01*
X121769285Y-109227952D01*
X121816904Y-109037476D01*
X121864523Y-108942238D01*
X121959761Y-108847000D01*
X122102619Y-108799380D01*
X122197857Y-108799380D01*
X122340714Y-108847000D01*
X122388333Y-108894619D01*
X122721666Y-108799380D02*
X123340714Y-108799380D01*
X123007380Y-109180333D01*
X123150238Y-109180333D01*
X123245476Y-109227952D01*
X123293095Y-109275571D01*
X123340714Y-109370809D01*
X123340714Y-109608904D01*
X123293095Y-109704142D01*
X123245476Y-109751761D01*
X123150238Y-109799380D01*
X122864523Y-109799380D01*
X122769285Y-109751761D01*
X122721666Y-109704142D01*
X163679142Y-103798666D02*
X163726761Y-103846285D01*
X163774380Y-103989142D01*
X163774380Y-104084380D01*
X163726761Y-104227238D01*
X163631523Y-104322476D01*
X163536285Y-104370095D01*
X163345809Y-104417714D01*
X163202952Y-104417714D01*
X163012476Y-104370095D01*
X162917238Y-104322476D01*
X162822000Y-104227238D01*
X162774380Y-104084380D01*
X162774380Y-103989142D01*
X162822000Y-103846285D01*
X162869619Y-103798666D01*
X162869619Y-103417714D02*
X162822000Y-103370095D01*
X162774380Y-103274857D01*
X162774380Y-103036761D01*
X162822000Y-102941523D01*
X162869619Y-102893904D01*
X162964857Y-102846285D01*
X163060095Y-102846285D01*
X163202952Y-102893904D01*
X163774380Y-103465333D01*
X163774380Y-102846285D01*
X122515333Y-103481142D02*
X122467714Y-103528761D01*
X122324857Y-103576380D01*
X122229619Y-103576380D01*
X122086761Y-103528761D01*
X121991523Y-103433523D01*
X121943904Y-103338285D01*
X121896285Y-103147809D01*
X121896285Y-103004952D01*
X121943904Y-102814476D01*
X121991523Y-102719238D01*
X122086761Y-102624000D01*
X122229619Y-102576380D01*
X122324857Y-102576380D01*
X122467714Y-102624000D01*
X122515333Y-102671619D01*
X123467714Y-103576380D02*
X122896285Y-103576380D01*
X123182000Y-103576380D02*
X123182000Y-102576380D01*
X123086761Y-102719238D01*
X122991523Y-102814476D01*
X122896285Y-102862095D01*
%LPC*%
D14*
X217220800Y-84068400D03*
D15*
X217220800Y-90068400D03*
D16*
X126840000Y-89620000D03*
X151840000Y-89620000D03*
D17*
X135185000Y-88200000D03*
X137955000Y-88200000D03*
X140725000Y-88200000D03*
X143495000Y-88200000D03*
X133800000Y-91040000D03*
X136570000Y-91040000D03*
X139340000Y-91040000D03*
X142110000Y-91040000D03*
D18*
X144880000Y-91040000D03*
D16*
X91920000Y-89610000D03*
X116920000Y-89610000D03*
D17*
X100265000Y-88190000D03*
X103035000Y-88190000D03*
X105805000Y-88190000D03*
X108575000Y-88190000D03*
X98880000Y-91030000D03*
X101650000Y-91030000D03*
X104420000Y-91030000D03*
X107190000Y-91030000D03*
D18*
X109960000Y-91030000D03*
D19*
X187452000Y-85300000D03*
D20*
X189992000Y-85300000D03*
D19*
X178435000Y-85300000D03*
D20*
X180975000Y-85300000D03*
X163000000Y-85300000D03*
D19*
X160460000Y-85300000D03*
D20*
X172000000Y-85300000D03*
D19*
X169460000Y-85300000D03*
D21*
X199750000Y-85580000D03*
D22*
X201000000Y-83090000D03*
X205500000Y-83090000D03*
D21*
X206760000Y-85580000D03*
D23*
X227000000Y-113000000D03*
X227000000Y-86000000D03*
X79000000Y-113000000D03*
X79000000Y-86000000D03*
D24*
X154309000Y-110361000D03*
X136529000Y-102741000D03*
X151769000Y-110361000D03*
X139069000Y-102741000D03*
X149229000Y-110361000D03*
X141609000Y-102741000D03*
X146689000Y-110361000D03*
X144149000Y-102741000D03*
X144149000Y-110361000D03*
X146689000Y-102741000D03*
X141609000Y-110361000D03*
X149229000Y-102741000D03*
X139069000Y-110361000D03*
X151769000Y-102741000D03*
X136529000Y-110361000D03*
D18*
X154309000Y-102741000D03*
D24*
X113639600Y-110185200D03*
X95859600Y-102565200D03*
X111099600Y-110185200D03*
X98399600Y-102565200D03*
X108559600Y-110185200D03*
X100939600Y-102565200D03*
X106019600Y-110185200D03*
X103479600Y-102565200D03*
X103479600Y-110185200D03*
X106019600Y-102565200D03*
X100939600Y-110185200D03*
X108559600Y-102565200D03*
X98399600Y-110185200D03*
X111099600Y-102565200D03*
X95859600Y-110185200D03*
D18*
X113639600Y-102565200D03*
D25*
X126238000Y-110490000D03*
X126238000Y-107950000D03*
X126238000Y-105410000D03*
D26*
X126238000Y-102870000D03*
D25*
X90297000Y-110490000D03*
X90297000Y-107950000D03*
X90297000Y-105410000D03*
D26*
X90297000Y-102870000D03*
D25*
X225806000Y-94742000D03*
D26*
X228346000Y-94742000D03*
D25*
X192532000Y-108331000D03*
D26*
X195072000Y-108331000D03*
D25*
X183388000Y-108331000D03*
D26*
X185928000Y-108331000D03*
D25*
X165862000Y-108331000D03*
D26*
X168402000Y-108331000D03*
D25*
X174244000Y-108331000D03*
D26*
X176784000Y-108331000D03*
D25*
X212090000Y-108331000D03*
D26*
X214630000Y-108331000D03*
D25*
X202057000Y-108331000D03*
D26*
X204597000Y-108331000D03*
D17*
X138430000Y-99028000D03*
X138430000Y-97028000D03*
X152400000Y-97060000D03*
X152400000Y-99060000D03*
X97917000Y-99028000D03*
X97917000Y-97028000D03*
X112141000Y-96933000D03*
X112141000Y-98933000D03*
X144431000Y-98044000D03*
X146431000Y-98044000D03*
X103791000Y-98044000D03*
X105791000Y-98044000D03*
X160750000Y-109728000D03*
X158750000Y-109728000D03*
X119602000Y-109347000D03*
X117602000Y-109347000D03*
X158528000Y-103632000D03*
X160528000Y-103632000D03*
X117761000Y-103378000D03*
X119761000Y-103378000D03*
M02*
