G04 #@! TF.GenerationSoftware,KiCad,Pcbnew,5.1.10*
G04 #@! TF.CreationDate,2021-11-29T20:01:27+01:00*
G04 #@! TF.ProjectId,RoscoFrontPanel,526f7363-6f46-4726-9f6e-7450616e656c,rev?*
G04 #@! TF.SameCoordinates,Original*
G04 #@! TF.FileFunction,Legend,Bot*
G04 #@! TF.FilePolarity,Positive*
%FSLAX46Y46*%
G04 Gerber Fmt 4.6, Leading zero omitted, Abs format (unit mm)*
G04 Created by KiCad (PCBNEW 5.1.10) date 2021-11-29 20:01:27*
%MOMM*%
%LPD*%
G01*
G04 APERTURE LIST*
%ADD10C,0.150000*%
%ADD11O,4.500000X2.250000*%
%ADD12O,5.000000X2.500000*%
%ADD13C,4.000000*%
%ADD14C,1.600000*%
%ADD15R,1.600000X1.600000*%
%ADD16C,1.800000*%
%ADD17R,1.800000X1.800000*%
%ADD18C,2.100000*%
%ADD19C,1.750000*%
%ADD20C,6.400000*%
%ADD21O,1.600000X1.600000*%
%ADD22O,1.700000X1.700000*%
%ADD23R,1.700000X1.700000*%
G04 APERTURE END LIST*
D10*
X150146666Y-107092380D02*
X150146666Y-106092380D01*
X149813333Y-106806666D01*
X149480000Y-106092380D01*
X149480000Y-107092380D01*
X148575238Y-107092380D02*
X148575238Y-106568571D01*
X148622857Y-106473333D01*
X148718095Y-106425714D01*
X148908571Y-106425714D01*
X149003809Y-106473333D01*
X148575238Y-107044761D02*
X148670476Y-107092380D01*
X148908571Y-107092380D01*
X149003809Y-107044761D01*
X149051428Y-106949523D01*
X149051428Y-106854285D01*
X149003809Y-106759047D01*
X148908571Y-106711428D01*
X148670476Y-106711428D01*
X148575238Y-106663809D01*
X148194285Y-107092380D02*
X147670476Y-106425714D01*
X148194285Y-106425714D02*
X147670476Y-107092380D01*
X147337142Y-106187619D02*
X147289523Y-106140000D01*
X147194285Y-106092380D01*
X146956190Y-106092380D01*
X146860952Y-106140000D01*
X146813333Y-106187619D01*
X146765714Y-106282857D01*
X146765714Y-106378095D01*
X146813333Y-106520952D01*
X147384761Y-107092380D01*
X146765714Y-107092380D01*
X146432380Y-106092380D02*
X145813333Y-106092380D01*
X146146666Y-106473333D01*
X146003809Y-106473333D01*
X145908571Y-106520952D01*
X145860952Y-106568571D01*
X145813333Y-106663809D01*
X145813333Y-106901904D01*
X145860952Y-106997142D01*
X145908571Y-107044761D01*
X146003809Y-107092380D01*
X146289523Y-107092380D01*
X146384761Y-107044761D01*
X146432380Y-106997142D01*
X145432380Y-106187619D02*
X145384761Y-106140000D01*
X145289523Y-106092380D01*
X145051428Y-106092380D01*
X144956190Y-106140000D01*
X144908571Y-106187619D01*
X144860952Y-106282857D01*
X144860952Y-106378095D01*
X144908571Y-106520952D01*
X145480000Y-107092380D01*
X144860952Y-107092380D01*
X143384761Y-107473333D02*
X143432380Y-107425714D01*
X143527619Y-107282857D01*
X143575238Y-107187619D01*
X143622857Y-107044761D01*
X143670476Y-106806666D01*
X143670476Y-106616190D01*
X143622857Y-106378095D01*
X143575238Y-106235238D01*
X143527619Y-106140000D01*
X143432380Y-105997142D01*
X143384761Y-105949523D01*
X143003809Y-106092380D02*
X143003809Y-106901904D01*
X142956190Y-106997142D01*
X142908571Y-107044761D01*
X142813333Y-107092380D01*
X142622857Y-107092380D01*
X142527619Y-107044761D01*
X142480000Y-106997142D01*
X142432380Y-106901904D01*
X142432380Y-106092380D01*
X142003809Y-106187619D02*
X141956190Y-106140000D01*
X141860952Y-106092380D01*
X141622857Y-106092380D01*
X141527619Y-106140000D01*
X141480000Y-106187619D01*
X141432380Y-106282857D01*
X141432380Y-106378095D01*
X141480000Y-106520952D01*
X142051428Y-107092380D01*
X141432380Y-107092380D01*
X141099047Y-107473333D02*
X141051428Y-107425714D01*
X140956190Y-107282857D01*
X140908571Y-107187619D01*
X140860952Y-107044761D01*
X140813333Y-106806666D01*
X140813333Y-106616190D01*
X140860952Y-106378095D01*
X140908571Y-106235238D01*
X140956190Y-106140000D01*
X141051428Y-105997142D01*
X141099047Y-105949523D01*
X109896666Y-106832380D02*
X109896666Y-105832380D01*
X109563333Y-106546666D01*
X109230000Y-105832380D01*
X109230000Y-106832380D01*
X108325238Y-106832380D02*
X108325238Y-106308571D01*
X108372857Y-106213333D01*
X108468095Y-106165714D01*
X108658571Y-106165714D01*
X108753809Y-106213333D01*
X108325238Y-106784761D02*
X108420476Y-106832380D01*
X108658571Y-106832380D01*
X108753809Y-106784761D01*
X108801428Y-106689523D01*
X108801428Y-106594285D01*
X108753809Y-106499047D01*
X108658571Y-106451428D01*
X108420476Y-106451428D01*
X108325238Y-106403809D01*
X107944285Y-106832380D02*
X107420476Y-106165714D01*
X107944285Y-106165714D02*
X107420476Y-106832380D01*
X107087142Y-105927619D02*
X107039523Y-105880000D01*
X106944285Y-105832380D01*
X106706190Y-105832380D01*
X106610952Y-105880000D01*
X106563333Y-105927619D01*
X106515714Y-106022857D01*
X106515714Y-106118095D01*
X106563333Y-106260952D01*
X107134761Y-106832380D01*
X106515714Y-106832380D01*
X106182380Y-105832380D02*
X105563333Y-105832380D01*
X105896666Y-106213333D01*
X105753809Y-106213333D01*
X105658571Y-106260952D01*
X105610952Y-106308571D01*
X105563333Y-106403809D01*
X105563333Y-106641904D01*
X105610952Y-106737142D01*
X105658571Y-106784761D01*
X105753809Y-106832380D01*
X106039523Y-106832380D01*
X106134761Y-106784761D01*
X106182380Y-106737142D01*
X105182380Y-105927619D02*
X105134761Y-105880000D01*
X105039523Y-105832380D01*
X104801428Y-105832380D01*
X104706190Y-105880000D01*
X104658571Y-105927619D01*
X104610952Y-106022857D01*
X104610952Y-106118095D01*
X104658571Y-106260952D01*
X105229999Y-106832380D01*
X104610952Y-106832380D01*
X103134761Y-107213333D02*
X103182380Y-107165714D01*
X103277619Y-107022857D01*
X103325238Y-106927619D01*
X103372857Y-106784761D01*
X103420476Y-106546666D01*
X103420476Y-106356190D01*
X103372857Y-106118095D01*
X103325238Y-105975238D01*
X103277619Y-105880000D01*
X103182380Y-105737142D01*
X103134761Y-105689523D01*
X102753809Y-105832380D02*
X102753809Y-106641904D01*
X102706190Y-106737142D01*
X102658571Y-106784761D01*
X102563333Y-106832380D01*
X102372857Y-106832380D01*
X102277619Y-106784761D01*
X102229999Y-106737142D01*
X102182380Y-106641904D01*
X102182380Y-105832380D01*
X101182380Y-106832380D02*
X101753809Y-106832380D01*
X101468095Y-106832380D02*
X101468095Y-105832380D01*
X101563333Y-105975238D01*
X101658571Y-106070476D01*
X101753809Y-106118095D01*
X100849047Y-107213333D02*
X100801428Y-107165714D01*
X100706190Y-107022857D01*
X100658571Y-106927619D01*
X100610952Y-106784761D01*
X100563333Y-106546666D01*
X100563333Y-106356190D01*
X100610952Y-106118095D01*
X100658571Y-105975238D01*
X100706190Y-105880000D01*
X100801428Y-105737142D01*
X100849047Y-105689523D01*
%LPC*%
D11*
X217220800Y-84068400D03*
D12*
X217220800Y-90068400D03*
D13*
X126840000Y-89620000D03*
X151840000Y-89620000D03*
D14*
X135185000Y-88200000D03*
X137955000Y-88200000D03*
X140725000Y-88200000D03*
X143495000Y-88200000D03*
X133800000Y-91040000D03*
X136570000Y-91040000D03*
X139340000Y-91040000D03*
X142110000Y-91040000D03*
D15*
X144880000Y-91040000D03*
D13*
X91920000Y-89610000D03*
X116920000Y-89610000D03*
D14*
X100265000Y-88190000D03*
X103035000Y-88190000D03*
X105805000Y-88190000D03*
X108575000Y-88190000D03*
X98880000Y-91030000D03*
X101650000Y-91030000D03*
X104420000Y-91030000D03*
X107190000Y-91030000D03*
D15*
X109960000Y-91030000D03*
D16*
X187452000Y-85300000D03*
D17*
X189992000Y-85300000D03*
D16*
X178435000Y-85300000D03*
D17*
X180975000Y-85300000D03*
X163000000Y-85300000D03*
D16*
X160460000Y-85300000D03*
D17*
X172000000Y-85300000D03*
D16*
X169460000Y-85300000D03*
D18*
X199750000Y-85580000D03*
D19*
X201000000Y-83090000D03*
X205500000Y-83090000D03*
D18*
X206760000Y-85580000D03*
D20*
X227000000Y-113000000D03*
X227000000Y-86000000D03*
X79000000Y-113000000D03*
X79000000Y-86000000D03*
D21*
X154309000Y-110361000D03*
X136529000Y-102741000D03*
X151769000Y-110361000D03*
X139069000Y-102741000D03*
X149229000Y-110361000D03*
X141609000Y-102741000D03*
X146689000Y-110361000D03*
X144149000Y-102741000D03*
X144149000Y-110361000D03*
X146689000Y-102741000D03*
X141609000Y-110361000D03*
X149229000Y-102741000D03*
X139069000Y-110361000D03*
X151769000Y-102741000D03*
X136529000Y-110361000D03*
D15*
X154309000Y-102741000D03*
D21*
X113639600Y-110185200D03*
X95859600Y-102565200D03*
X111099600Y-110185200D03*
X98399600Y-102565200D03*
X108559600Y-110185200D03*
X100939600Y-102565200D03*
X106019600Y-110185200D03*
X103479600Y-102565200D03*
X103479600Y-110185200D03*
X106019600Y-102565200D03*
X100939600Y-110185200D03*
X108559600Y-102565200D03*
X98399600Y-110185200D03*
X111099600Y-102565200D03*
X95859600Y-110185200D03*
D15*
X113639600Y-102565200D03*
D22*
X126238000Y-110490000D03*
X126238000Y-107950000D03*
X126238000Y-105410000D03*
D23*
X126238000Y-102870000D03*
D22*
X90297000Y-110490000D03*
X90297000Y-107950000D03*
X90297000Y-105410000D03*
D23*
X90297000Y-102870000D03*
D22*
X225806000Y-94742000D03*
D23*
X228346000Y-94742000D03*
D22*
X192532000Y-108331000D03*
D23*
X195072000Y-108331000D03*
D22*
X183388000Y-108331000D03*
D23*
X185928000Y-108331000D03*
D22*
X165862000Y-108331000D03*
D23*
X168402000Y-108331000D03*
D22*
X174244000Y-108331000D03*
D23*
X176784000Y-108331000D03*
D22*
X212090000Y-108331000D03*
D23*
X214630000Y-108331000D03*
D22*
X202057000Y-108331000D03*
D23*
X204597000Y-108331000D03*
D14*
X138430000Y-99028000D03*
X138430000Y-97028000D03*
X152400000Y-97060000D03*
X152400000Y-99060000D03*
X97917000Y-99028000D03*
X97917000Y-97028000D03*
X112141000Y-96933000D03*
X112141000Y-98933000D03*
X144431000Y-98044000D03*
X146431000Y-98044000D03*
X103791000Y-98044000D03*
X105791000Y-98044000D03*
X160750000Y-109728000D03*
X158750000Y-109728000D03*
X119602000Y-109347000D03*
X117602000Y-109347000D03*
X158528000Y-103632000D03*
X160528000Y-103632000D03*
X117761000Y-103378000D03*
X119761000Y-103378000D03*
M02*
