M48
; DRILL file {KiCad 5.1.10} date Mon Nov 29 20:01:29 2021
; FORMAT={-:-/ absolute / metric / decimal}
; #@! TF.CreationDate,2021-11-29T20:01:29+01:00
; #@! TF.GenerationSoftware,Kicad,Pcbnew,5.1.10
; #@! TF.FileFunction,Plated,1,2,PTH
FMAT,2
METRIC
T1C0.400
T2C0.800
T3C0.900
T4C0.990
T5C1.000
T6C1.300
T7C3.200
%
G90
G05
T1
X99.568Y-106.426
X101.346Y-99.314
X104.902Y-93.726
X108.204Y-99.822
X124.206Y-98.044
X124.206Y-99.06
X128.778Y-101.346
X130.302Y-101.346
X133.604Y-95.25
X134.112Y-99.06
X137.922Y-116.078
X141.732Y-99.568
X144.526Y-116.586
X165.862Y-89.154
X165.862Y-92.456
X174.244Y-88.392
X174.244Y-92.456
X183.388Y-88.392
X183.388Y-92.456
X192.532Y-88.392
X192.532Y-92.456
X202.692Y-86.614
T2
X95.86Y-102.565
X95.86Y-110.185
X97.917Y-97.028
X97.917Y-99.028
X98.4Y-102.565
X98.4Y-110.185
X100.94Y-102.565
X100.94Y-110.185
X103.48Y-102.565
X103.48Y-110.185
X103.791Y-98.044
X105.791Y-98.044
X106.02Y-102.565
X106.02Y-110.185
X108.56Y-102.565
X108.56Y-110.185
X111.1Y-102.565
X111.1Y-110.185
X112.141Y-96.933
X112.141Y-98.933
X113.64Y-102.565
X113.64Y-110.185
X117.602Y-109.347
X117.761Y-103.378
X119.602Y-109.347
X119.761Y-103.378
X136.529Y-102.741
X136.529Y-110.361
X138.43Y-97.028
X138.43Y-99.028
X139.069Y-102.741
X139.069Y-110.361
X141.609Y-102.741
X141.609Y-110.361
X144.149Y-102.741
X144.149Y-110.361
X144.431Y-98.044
X146.431Y-98.044
X146.689Y-102.741
X146.689Y-110.361
X149.229Y-102.741
X149.229Y-110.361
X151.769Y-102.741
X151.769Y-110.361
X152.4Y-97.06
X152.4Y-99.06
X154.309Y-102.741
X154.309Y-110.361
X158.528Y-103.632
X158.75Y-109.728
X160.528Y-103.632
X160.75Y-109.728
T3
X160.46Y-85.3
X163.0Y-85.3
X169.46Y-85.3
X172.0Y-85.3
X178.435Y-85.3
X180.975Y-85.3
X187.452Y-85.3
X189.992Y-85.3
T4
X201.0Y-83.09
X205.5Y-83.09
T5
X90.297Y-102.87
X90.297Y-105.41
X90.297Y-107.95
X90.297Y-110.49
X98.88Y-91.03
X100.265Y-88.19
X101.65Y-91.03
X103.035Y-88.19
X104.42Y-91.03
X105.805Y-88.19
X107.19Y-91.03
X108.575Y-88.19
X109.96Y-91.03
X126.238Y-102.87
X126.238Y-105.41
X126.238Y-107.95
X126.238Y-110.49
X133.8Y-91.04
X135.185Y-88.2
X136.57Y-91.04
X137.955Y-88.2
X139.34Y-91.04
X140.725Y-88.2
X142.11Y-91.04
X143.495Y-88.2
X144.88Y-91.04
X165.862Y-108.331
X168.402Y-108.331
X174.244Y-108.331
X176.784Y-108.331
X183.388Y-108.331
X185.928Y-108.331
X192.532Y-108.331
X195.072Y-108.331
X202.057Y-108.331
X204.597Y-108.331
X212.09Y-108.331
X214.63Y-108.331
X225.806Y-94.742
X228.346Y-94.742
T6
X199.75Y-85.58
X206.76Y-85.58
T7
X79.0Y-86.0
X79.0Y-113.0
X91.92Y-89.61
X116.92Y-89.61
X126.84Y-89.62
X151.84Y-89.62
X227.0Y-86.0
X227.0Y-113.0
T5
X216.221Y-84.068G85X218.221Y-84.068
G05
X215.971Y-90.068G85X218.471Y-90.068
G05
T0
M30
