%FSLAX45Y45*%
G04 Gerber Fmt 4.5, Leading zero omitted, Abs format (unit mm)*
G04 Created by KiCad (PCBNEW 5.1.10) date 2021-11-29 19:36:09*
%MOMM*%
%LPD*%
G01*
G04 APERTURE LIST*
%TA.AperFunction,Profile*%
%ADD10C,0.050000*%
%TD*%
%ADD11C,0.200000*%
%ADD12C,0.300000*%
G04 APERTURE END LIST*
D10*
X7300000Y-11900000D02*
X7300000Y-8000000D01*
X23300000Y-11900000D02*
X7300000Y-11900000D01*
X23300000Y-8000000D02*
X23300000Y-11900000D01*
X7300000Y-8000000D02*
X23300000Y-8000000D01*
D11*
D12*
X7583928Y-12368214D02*
X7583928Y-12068214D01*
X7655357Y-12068214D01*
X7698214Y-12082500D01*
X7726786Y-12111071D01*
X7741071Y-12139643D01*
X7755357Y-12196786D01*
X7755357Y-12239643D01*
X7741071Y-12296786D01*
X7726786Y-12325357D01*
X7698214Y-12353929D01*
X7655357Y-12368214D01*
X7583928Y-12368214D01*
X7883928Y-12368214D02*
X7883928Y-12168214D01*
X7883928Y-12225357D02*
X7898214Y-12196786D01*
X7912500Y-12182500D01*
X7941071Y-12168214D01*
X7969643Y-12168214D01*
X8069643Y-12368214D02*
X8069643Y-12168214D01*
X8069643Y-12068214D02*
X8055357Y-12082500D01*
X8069643Y-12096786D01*
X8083928Y-12082500D01*
X8069643Y-12068214D01*
X8069643Y-12096786D01*
X8255357Y-12368214D02*
X8226786Y-12353929D01*
X8212500Y-12325357D01*
X8212500Y-12068214D01*
X8412500Y-12368214D02*
X8383928Y-12353929D01*
X8369643Y-12325357D01*
X8369643Y-12068214D01*
X8755357Y-12368214D02*
X8755357Y-12068214D01*
X8855357Y-12282500D01*
X8955357Y-12068214D01*
X8955357Y-12368214D01*
X9226786Y-12368214D02*
X9226786Y-12211071D01*
X9212500Y-12182500D01*
X9183928Y-12168214D01*
X9126786Y-12168214D01*
X9098214Y-12182500D01*
X9226786Y-12353929D02*
X9198214Y-12368214D01*
X9126786Y-12368214D01*
X9098214Y-12353929D01*
X9083928Y-12325357D01*
X9083928Y-12296786D01*
X9098214Y-12268214D01*
X9126786Y-12253929D01*
X9198214Y-12253929D01*
X9226786Y-12239643D01*
X9369643Y-12168214D02*
X9369643Y-12468214D01*
X9369643Y-12182500D02*
X9398214Y-12168214D01*
X9455357Y-12168214D01*
X9483928Y-12182500D01*
X9498214Y-12196786D01*
X9512500Y-12225357D01*
X9512500Y-12311071D01*
X9498214Y-12339643D01*
X9483928Y-12353929D01*
X9455357Y-12368214D01*
X9398214Y-12368214D01*
X9369643Y-12353929D01*
X9641071Y-12339643D02*
X9655357Y-12353929D01*
X9641071Y-12368214D01*
X9626786Y-12353929D01*
X9641071Y-12339643D01*
X9641071Y-12368214D01*
X9641071Y-12182500D02*
X9655357Y-12196786D01*
X9641071Y-12211071D01*
X9626786Y-12196786D01*
X9641071Y-12182500D01*
X9641071Y-12211071D01*
M02*
